<svg xmlns="http://www.w3.org/2000/svg" xmlns:xlink="http://www.w3.org/1999/xlink" width="500" zoomAndPan="magnify" viewBox="0 0 375 374.999991" height="500" preserveAspectRatio="xMidYMid meet" version="1.0"><defs><clipPath id="4e7c560480"><path d="M 57.710938 220.234375 L 317.664062 220.234375 L 317.664062 337.5 L 57.710938 337.5 Z M 57.710938 220.234375 " clip-rule="nonzero"/></clipPath><clipPath id="cb6607abee"><path d="M 214.496094 265.84375 L 295.097656 265.84375 L 295.097656 330.886719 L 214.496094 330.886719 Z M 214.496094 265.84375 " clip-rule="nonzero"/></clipPath><clipPath id="af421ac7a4"><path d="M 222 265 L 287 265 L 287 321.96875 L 222 321.96875 Z M 222 265 " clip-rule="nonzero"/></clipPath><clipPath id="e9f5ad04ae"><path d="M 225.269531 274.804688 C 220.070312 283.375 223.734375 291.714844 228.339844 296.140625 L 255.257812 321.96875 L 281.613281 296.230469 C 285.894531 291.46875 287.535156 286.421875 286.625 280.796875 C 285.363281 273.015625 278.953125 266.980469 271.035156 266.121094 C 266.179688 265.597656 261.484375 266.972656 257.824219 270.015625 C 256.839844 270.832031 255.957031 271.75 255.191406 272.742188 C 254.277344 271.609375 253.210938 270.574219 252.003906 269.65625 C 247.792969 266.457031 242.429688 265.183594 237.28125 266.171875 C 232.40625 267.113281 228.027344 270.261719 225.269531 274.804688 Z M 225.269531 274.804688 " clip-rule="nonzero"/></clipPath></defs><path fill="#000000" d="M 200.894531 83.886719 L 193.300781 83.886719 L 193.300781 91.46875 L 182.074219 91.46875 L 182.074219 83.886719 L 174.480469 83.886719 L 174.480469 72.667969 L 182.074219 72.667969 L 182.074219 65.191406 L 193.300781 65.191406 L 193.300781 72.667969 L 200.894531 72.667969 Z M 258.316406 57.925781 C 254.25 38.160156 121.125 37.523438 117.058594 57.925781 L 112.035156 111.234375 L 263.339844 111.234375 L 258.316406 57.925781 " fill-opacity="1" fill-rule="nonzero"/><g clip-path="url(#4e7c560480)"><path fill="#000000" d="M 279.488281 324.574219 L 224.847656 324.574219 L 224.847656 288.039062 L 239.601562 288.039062 L 239.601562 298.933594 L 264.730469 298.933594 L 264.730469 288.039062 L 279.488281 288.039062 Z M 247.730469 271.050781 L 256.605469 271.050781 L 256.605469 290.816406 L 247.730469 290.816406 Z M 288.683594 249.367188 L 235.753906 220.628906 L 187.742188 301.175781 L 139.621094 220.628906 L 86.691406 249.367188 C 55.039062 266.5625 60.171875 303.742188 57.710938 337.5 L 317.664062 337.5 C 315.203125 303.742188 320.335938 266.5625 288.683594 249.367188 " fill-opacity="1" fill-rule="nonzero"/></g><path fill="#000000" d="M 159.511719 130.679688 C 166.035156 130.679688 171.378906 135.914062 171.378906 142.429688 C 171.378906 148.945312 166.035156 154.179688 159.511719 154.179688 C 152.988281 154.179688 147.75 148.945312 147.75 142.429688 C 147.75 135.914062 152.988281 130.679688 159.511719 130.679688 Z M 187.742188 179.605469 L 201.75 179.605469 C 199.71875 185.375 194.15625 189.542969 187.742188 189.542969 C 181.21875 189.542969 175.660156 185.375 173.625 179.605469 Z M 215.863281 130.679688 C 222.386719 130.679688 227.628906 135.914062 227.628906 142.429688 C 227.628906 148.945312 222.386719 154.179688 215.863281 154.179688 C 209.34375 154.179688 203.996094 148.945312 203.996094 142.429688 C 203.996094 135.914062 209.34375 130.679688 215.863281 130.679688 Z M 159.296875 213.257812 C 136.628906 200.972656 125.507812 175.972656 125.507812 153.113281 C 125.507812 179.074219 158.335938 213.578125 187.742188 212.722656 C 217.039062 213.578125 249.867188 179.074219 249.867188 153.113281 C 249.867188 175.972656 238.746094 200.972656 216.078125 213.257812 C 235.433594 221.160156 261.097656 227.039062 287.292969 205.457031 C 268.582031 204.605469 264.625 153.113281 264.625 125.121094 C 264.625 123.199219 264.515625 121.273438 264.410156 119.351562 L 110.964844 119.351562 C 110.859375 121.273438 110.753906 123.199219 110.753906 125.121094 C 110.753906 153.113281 106.792969 204.605469 88.082031 205.457031 C 114.277344 227.039062 139.941406 221.160156 159.296875 213.257812 " fill-opacity="1" fill-rule="nonzero"/><g clip-path="url(#cb6607abee)"><path fill="#000000" d="M 214.496094 265.84375 L 295.097656 265.84375 L 295.097656 330.886719 L 214.496094 330.886719 Z M 214.496094 265.84375 " fill-opacity="1" fill-rule="nonzero"/></g><g clip-path="url(#af421ac7a4)"><g clip-path="url(#e9f5ad04ae)"><path fill="#ffffff" d="M 222.726562 265.84375 L 286.867188 265.84375 L 286.867188 321.96875 L 222.726562 321.96875 Z M 222.726562 265.84375 " fill-opacity="1" fill-rule="nonzero"/></g></g></svg>