<svg xmlns="http://www.w3.org/2000/svg" xmlns:xlink="http://www.w3.org/1999/xlink" width="500" zoomAndPan="magnify" viewBox="0 0 375 374.999991" height="500" preserveAspectRatio="xMidYMid meet" version="1.0"><defs><clipPath id="b53c1e1e25"><path d="M 91.6875 37.5 L 283.6875 37.5 L 283.6875 337.5 L 91.6875 337.5 Z M 91.6875 37.5 " clip-rule="nonzero"/></clipPath></defs><path fill="#000000" d="M 126.371094 181.0625 C 121.238281 181.0625 117.0625 185.230469 117.0625 190.355469 C 117.0625 195.476562 121.238281 199.644531 126.371094 199.644531 C 131.503906 199.644531 135.683594 195.476562 135.683594 190.355469 C 135.683594 185.230469 131.503906 181.0625 126.371094 181.0625 Z M 126.371094 194.886719 C 123.867188 194.886719 121.828125 192.855469 121.828125 190.355469 C 121.828125 187.855469 123.867188 185.820312 126.371094 185.820312 C 128.878906 185.820312 130.914062 187.855469 130.914062 190.355469 C 130.914062 192.855469 128.878906 194.886719 126.371094 194.886719 Z M 126.371094 194.886719 " fill-opacity="1" fill-rule="nonzero"/><path fill="#000000" d="M 215 199.644531 C 220.132812 199.644531 224.308594 195.476562 224.308594 190.355469 C 224.308594 185.230469 220.132812 181.0625 215 181.0625 C 209.867188 181.0625 205.691406 185.230469 205.691406 190.355469 C 205.691406 195.476562 209.867188 199.644531 215 199.644531 Z M 215 185.820312 C 217.503906 185.820312 219.542969 187.855469 219.542969 190.355469 C 219.542969 192.855469 217.507812 194.886719 215 194.886719 C 212.496094 194.886719 210.457031 192.855469 210.457031 190.355469 C 210.457031 187.855469 212.496094 185.820312 215 185.820312 Z M 215 185.820312 " fill-opacity="1" fill-rule="nonzero"/><g clip-path="url(#b53c1e1e25)"><path fill="#000000" d="M 276.625 146.511719 C 277.878906 144.34375 278.558594 141.859375 278.558594 139.261719 L 278.558594 80.503906 C 278.558594 75.757812 276.265625 71.53125 272.722656 68.878906 L 272.722656 59.222656 C 272.722656 55.175781 269.425781 51.886719 265.375 51.886719 L 262.628906 51.886719 C 258.578125 51.886719 255.28125 55.175781 255.28125 59.222656 L 255.28125 68.878906 C 251.738281 71.53125 249.445312 75.757812 249.445312 80.503906 L 249.445312 139.261719 C 249.445312 141.851562 250.121094 144.328125 251.367188 146.492188 L 241.839844 146.492188 L 241.839844 141.40625 C 241.839844 128.40625 235.160156 116.34375 224.257812 109.390625 C 225.515625 106.59375 226.078125 103.496094 225.839844 100.390625 L 222.320312 54.742188 C 221.578125 45.144531 213.445312 37.625 203.800781 37.625 L 137.574219 37.625 C 127.929688 37.625 119.792969 45.144531 119.050781 54.742188 L 115.535156 100.390625 C 115.292969 103.496094 115.859375 106.59375 117.113281 109.390625 C 106.214844 116.34375 99.53125 128.40625 99.53125 141.40625 L 99.53125 301.617188 C 95.039062 302.691406 91.6875 306.722656 91.6875 311.53125 L 91.6875 323.117188 C 91.6875 324.433594 92.753906 325.496094 94.070312 325.496094 L 104 325.496094 L 104 328.484375 C 104 333.386719 107.996094 337.375 112.910156 337.375 L 122.605469 337.375 C 127.519531 337.375 131.515625 333.386719 131.515625 328.484375 L 131.515625 325.496094 L 209.859375 325.496094 L 209.859375 328.484375 C 209.859375 333.386719 213.855469 337.375 218.765625 337.375 L 228.464844 337.375 C 233.375 337.375 237.371094 333.386719 237.371094 328.484375 L 237.371094 325.496094 L 247.300781 325.496094 C 248.617188 325.496094 249.6875 324.433594 249.6875 323.117188 L 249.6875 310.660156 C 251.292969 310.371094 252.847656 309.964844 254.332031 309.429688 C 262.882812 306.371094 269.320312 299.5 272.953125 289.558594 C 279.300781 272.1875 275.652344 248.855469 270.527344 233.863281 C 272.308594 224.714844 273.195312 214.027344 273.203125 201.75 L 273.203125 166.828125 L 276.246094 166.828125 C 280.359375 166.828125 283.707031 163.488281 283.707031 159.382812 L 283.707031 153.9375 C 283.703125 149.960938 280.5625 146.710938 276.625 146.511719 Z M 260.046875 59.222656 C 260.046875 57.800781 261.207031 56.644531 262.628906 56.644531 L 265.371094 56.644531 C 266.796875 56.644531 267.957031 57.800781 267.957031 59.222656 L 267.957031 66.523438 C 266.695312 66.171875 265.371094 65.976562 264 65.976562 C 262.628906 65.976562 261.304688 66.171875 260.046875 66.523438 Z M 254.210938 126.820312 L 263.5 126.820312 C 264.816406 126.820312 265.882812 125.753906 265.882812 124.441406 C 265.882812 123.125 264.816406 122.0625 263.5 122.0625 L 254.210938 122.0625 L 254.210938 105.363281 L 263.5 105.363281 C 264.816406 105.363281 265.882812 104.300781 265.882812 102.984375 C 265.882812 101.671875 264.816406 100.605469 263.5 100.605469 L 254.210938 100.605469 L 254.210938 83.910156 L 263.5 83.910156 C 264.816406 83.910156 265.882812 82.84375 265.882812 81.53125 C 265.882812 80.21875 264.816406 79.152344 263.5 79.152344 L 254.316406 79.152344 C 254.980469 74.402344 259.0625 70.734375 264 70.734375 C 269.402344 70.734375 273.792969 75.117188 273.792969 80.503906 L 273.792969 139.261719 C 273.792969 142.050781 272.621094 144.640625 270.570312 146.492188 L 257.433594 146.492188 C 255.382812 144.640625 254.210938 142.050781 254.210938 139.261719 Z M 241.839844 166.828125 L 255.082031 166.828125 L 255.082031 201.742188 C 255.070312 228.777344 250.507812 246.535156 241.839844 253.5625 Z M 259.851562 201.746094 L 259.851562 166.828125 L 268.433594 166.828125 L 268.433594 201.746094 C 268.417969 238.261719 260.628906 259.773438 244.617188 267.507812 C 240.855469 269.324219 236.367188 270.246094 231.269531 270.246094 C 211.117188 270.246094 185.359375 256.367188 170.019531 237.242188 C 169.25 236.28125 168.933594 235.082031 169.128906 233.871094 C 169.320312 232.667969 169.992188 231.636719 171.015625 230.972656 C 172.878906 229.765625 175.339844 230.183594 176.742188 231.949219 C 192.089844 251.246094 216.3125 261.664062 231.3125 261.664062 C 235.097656 261.664062 238.316406 261.035156 240.875 259.800781 C 253.453125 253.722656 259.835938 234.191406 259.851562 201.746094 Z M 255.933594 283.363281 C 254.179688 288.160156 251.582031 291.207031 248.21875 292.410156 C 246.898438 292.882812 245.382812 293.121094 243.710938 293.121094 C 243.105469 293.121094 242.476562 293.082031 241.839844 293.019531 L 241.839844 273.617188 C 243.542969 273.132812 245.167969 272.527344 246.691406 271.792969 C 251.046875 269.6875 254.847656 266.726562 258.117188 262.898438 C 258.601562 270.867188 257.851562 278.113281 255.933594 283.363281 Z M 237.074219 274.609375 L 237.074219 292.105469 C 226.222656 289.09375 212.1875 279.542969 199.253906 266.441406 C 210.050781 271.84375 221.292969 275.003906 231.269531 275.003906 C 233.285156 275.003906 235.214844 274.867188 237.074219 274.609375 Z M 166.300781 240.214844 C 166.628906 240.625 166.972656 241.03125 167.3125 241.4375 C 165.734375 242.703125 164.628906 244.441406 164.167969 246.449219 C 163.609375 248.890625 164.070312 251.390625 165.460938 253.480469 C 170.070312 260.414062 175.441406 267.246094 181.234375 273.636719 L 157.050781 273.636719 L 157.050781 212.242188 L 184.324219 212.242188 L 184.324219 233.410156 C 182.980469 231.992188 181.695312 230.519531 180.476562 228.988281 C 177.535156 225.289062 172.347656 224.429688 168.414062 226.984375 C 166.28125 228.371094 164.824219 230.609375 164.421875 233.117188 C 164.015625 235.636719 164.699219 238.222656 166.300781 240.214844 Z M 137.792969 75.511719 L 151.15625 75.511719 C 152.472656 75.511719 153.539062 74.445312 153.539062 73.132812 C 153.539062 71.820312 152.472656 70.753906 151.15625 70.753906 L 138.082031 70.753906 L 138.703125 60.632812 L 151.15625 60.632812 C 152.472656 60.632812 153.539062 59.566406 153.539062 58.253906 C 153.539062 56.9375 152.472656 55.875 151.15625 55.875 L 138.992188 55.875 L 139.816406 42.382812 L 201.554688 42.382812 L 202.378906 55.875 L 190.21875 55.875 C 188.902344 55.875 187.835938 56.9375 187.835938 58.253906 C 187.835938 59.566406 188.902344 60.632812 190.21875 60.632812 L 202.671875 60.632812 L 203.289062 70.753906 L 190.21875 70.753906 C 188.902344 70.753906 187.835938 71.820312 187.835938 73.132812 C 187.835938 74.445312 188.902344 75.511719 190.21875 75.511719 L 203.582031 75.511719 L 204.664062 93.265625 L 136.707031 93.265625 Z M 120.289062 100.753906 L 123.804688 55.109375 C 124.289062 48.835938 129.019531 43.765625 135.027344 42.625 L 131.792969 95.5 C 131.753906 96.15625 131.988281 96.796875 132.4375 97.277344 C 132.890625 97.753906 133.515625 98.023438 134.175781 98.023438 L 207.199219 98.023438 C 207.855469 98.023438 208.484375 97.753906 208.9375 97.277344 C 209.386719 96.796875 209.617188 96.15625 209.578125 95.5 L 206.347656 42.625 C 212.355469 43.765625 217.085938 48.835938 217.566406 55.109375 L 221.085938 100.753906 C 221.382812 104.625 220.09375 108.328125 217.449219 111.175781 C 214.804688 114.023438 211.207031 115.59375 207.316406 115.59375 L 134.054688 115.59375 C 130.164062 115.59375 126.566406 114.023438 123.925781 111.175781 C 121.28125 108.328125 119.988281 104.625 120.289062 100.753906 Z M 119.601562 113.449219 C 119.867188 113.777344 120.140625 114.097656 120.425781 114.410156 C 123.929688 118.183594 128.898438 120.351562 134.054688 120.351562 L 207.316406 120.351562 C 212.476562 120.351562 217.441406 118.183594 220.945312 114.410156 C 221.234375 114.097656 221.503906 113.777344 221.769531 113.449219 C 230.59375 119.113281 236.234375 128.605469 236.984375 139.027344 L 104.386719 139.027344 C 105.136719 128.605469 110.78125 119.113281 119.601562 113.449219 Z M 217.988281 143.785156 L 217.988281 170.058594 L 123.386719 170.058594 L 123.386719 143.785156 Z M 104.300781 143.785156 L 118.617188 143.785156 L 118.617188 172.4375 C 118.617188 173.753906 119.683594 174.816406 121 174.816406 L 220.371094 174.816406 C 221.6875 174.816406 222.753906 173.753906 222.753906 172.4375 L 222.753906 143.785156 L 237.074219 143.785156 L 237.074219 256.171875 C 235.453125 256.65625 233.527344 256.902344 231.3125 256.902344 C 219.863281 256.902344 202.609375 250 189.089844 238.027344 L 189.089844 209.863281 C 189.089844 208.550781 188.023438 207.484375 186.707031 207.484375 L 154.664062 207.484375 C 153.347656 207.484375 152.28125 208.550781 152.28125 209.863281 L 152.28125 276.015625 C 152.28125 277.328125 153.347656 278.394531 154.664062 278.394531 L 185.699219 278.394531 C 191.5 284.34375 197.621094 289.792969 203.773438 294.421875 C 207.222656 297.015625 210.628906 299.316406 213.980469 301.324219 L 104.300781 301.324219 Z M 126.746094 328.484375 C 126.746094 330.761719 124.890625 332.617188 122.605469 332.617188 L 112.910156 332.617188 C 110.625 332.617188 108.765625 330.761719 108.765625 328.484375 L 108.765625 325.496094 L 126.746094 325.496094 Z M 232.605469 328.484375 C 232.605469 330.761719 230.746094 332.617188 228.464844 332.617188 L 218.765625 332.617188 C 216.484375 332.617188 214.625 330.761719 214.625 328.484375 L 214.625 325.496094 L 232.605469 325.496094 Z M 244.917969 320.738281 L 96.453125 320.738281 L 96.453125 311.53125 C 96.453125 308.527344 98.90625 306.082031 101.917969 306.082031 L 223.023438 306.082031 C 230.054688 309.199219 237.339844 310.960938 244.917969 311.148438 Z M 268.476562 287.925781 C 265.34375 296.496094 259.898438 302.382812 252.722656 304.953125 C 250.023438 305.921875 247.042969 306.410156 243.871094 306.410156 C 233.246094 306.410156 220.371094 300.953125 206.644531 290.621094 C 192.957031 280.320312 179.390625 265.824219 169.433594 250.847656 C 168.769531 249.855469 168.550781 248.667969 168.816406 247.507812 C 169.046875 246.488281 169.628906 245.617188 170.460938 245.011719 C 174.902344 249.785156 179.949219 254.171875 185.339844 258.03125 C 204.382812 281.5 228.359375 297.878906 243.707031 297.878906 C 245.929688 297.878906 247.988281 297.546875 249.824219 296.890625 C 254.585938 295.183594 258.148438 291.179688 260.410156 284.992188 C 263.039062 277.796875 263.71875 267.863281 262.34375 256.953125 C 264.722656 252.957031 266.707031 248.316406 268.296875 243.007812 C 272.542969 259.40625 272.703125 276.351562 268.476562 287.925781 Z M 278.9375 159.382812 C 278.9375 160.863281 277.730469 162.070312 276.246094 162.070312 L 241.839844 162.070312 L 241.839844 151.25 L 276.246094 151.25 C 277.730469 151.25 278.9375 152.453125 278.9375 153.9375 Z M 278.9375 159.382812 " fill-opacity="1" fill-rule="nonzero"/></g></svg>