<svg xmlns="http://www.w3.org/2000/svg" xmlns:xlink="http://www.w3.org/1999/xlink" width="500" zoomAndPan="magnify" viewBox="0 0 375 374.999991" height="500" preserveAspectRatio="xMidYMid meet" version="1.0"><defs><clipPath id="2c8652d952"><path d="M 185 183 L 337.5 183 L 337.5 242 L 185 242 Z M 185 183 " clip-rule="nonzero"/></clipPath><clipPath id="d109a106e2"><path d="M 37.5 275 L 217 275 L 217 309.9375 L 37.5 309.9375 Z M 37.5 275 " clip-rule="nonzero"/></clipPath></defs><path fill="#000000" d="M 227.582031 111.230469 C 227.277344 100.421875 235.085938 94.785156 235.417969 94.550781 C 235.445312 94.53125 235.472656 94.511719 235.5 94.492188 C 240.40625 91.367188 246.347656 91.53125 252.675781 94.96875 C 254.785156 96.113281 257.324219 96.152344 259.636719 95.074219 C 262.621094 93.683594 265.90625 92.984375 269.230469 92.984375 C 272.023438 92.984375 274.839844 93.480469 277.519531 94.46875 C 283.347656 96.621094 287.960938 100.878906 290.511719 106.457031 C 293.273438 112.507812 296.234375 115.863281 298.113281 117.554688 C 300.667969 110.242188 300.078125 101.40625 296.394531 92.867188 C 291.382812 81.253906 281.515625 72.101562 270.003906 68.378906 C 260.871094 65.429688 253.425781 66.40625 247.867188 71.277344 C 243.707031 74.921875 242.195312 79.394531 242.179688 79.441406 C 241.824219 80.519531 240.695312 81.144531 239.59375 80.871094 C 239.574219 80.867188 236.667969 80.191406 233.476562 81.003906 C 229.433594 82.03125 226.730469 84.984375 225.441406 89.78125 C 222.851562 99.4375 223.882812 111.570312 224.609375 117.296875 C 226.652344 115.605469 227.652344 113.574219 227.582031 111.230469 Z M 227.582031 111.230469 " fill-opacity="1" fill-rule="nonzero"/><path fill="#000000" d="M 244.121094 168.152344 C 244.125 168.15625 244.132812 168.160156 244.136719 168.167969 C 244.140625 168.167969 244.144531 168.171875 244.148438 168.175781 C 246.980469 170.582031 249.167969 171.679688 249.769531 171.957031 C 249.789062 171.96875 249.816406 171.980469 249.847656 171.992188 C 257.125 175.488281 264.820312 175.488281 272.097656 171.992188 C 272.125 171.980469 272.152344 171.96875 272.171875 171.957031 C 272.769531 171.679688 274.9375 170.59375 277.746094 168.21875 C 277.761719 168.203125 277.78125 168.1875 277.796875 168.171875 C 280.671875 165.730469 284.816406 161.386719 288.230469 154.542969 C 292.636719 145.691406 293.839844 141.414062 294.554688 138.855469 C 295.203125 136.542969 295.59375 135.148438 297.746094 133.78125 C 299.8125 132.46875 300.953125 130.390625 300.953125 127.921875 C 300.953125 124.269531 297.96875 122.953125 297.566406 122.609375 C 295.945312 121.59375 290.9375 117.859375 286.554688 108.269531 C 284.492188 103.753906 280.75 100.304688 276.015625 98.554688 C 271.21875 96.785156 265.917969 96.953125 261.46875 99.023438 C 257.898438 100.6875 253.9375 100.605469 250.605469 98.796875 C 244.507812 95.488281 240.332031 96.597656 237.890625 98.136719 C 237.355469 98.53125 231.699219 102.921875 231.929688 111.105469 C 232.085938 116.496094 228.898438 120.1875 224.171875 122.761719 C 221.976562 124.050781 220.988281 125.851562 220.988281 127.921875 C 220.988281 130.390625 222.128906 132.46875 224.195312 133.78125 C 226.347656 135.148438 226.738281 136.546875 227.386719 138.855469 C 228.101562 141.410156 229.304688 145.691406 233.714844 154.542969 C 237.113281 161.363281 241.242188 165.703125 244.121094 168.152344 Z M 244.121094 168.152344 " fill-opacity="1" fill-rule="nonzero"/><path fill="#000000" d="M 274.253906 175.765625 C 274.171875 175.820312 274.085938 175.867188 274 175.910156 C 274.050781 175.886719 274.144531 175.839844 274.253906 175.765625 Z M 274.253906 175.765625 " fill-opacity="1" fill-rule="nonzero"/><path fill="#000000" d="M 260.972656 200.980469 L 280.964844 180.753906 L 278.207031 173.378906 C 267.929688 180.761719 254.089844 180.816406 243.734375 173.378906 L 240.976562 180.753906 L 260.96875 200.980469 L 260.96875 200.984375 L 260.972656 200.980469 L 260.972656 200.984375 Z M 260.972656 200.980469 " fill-opacity="1" fill-rule="nonzero"/><g clip-path="url(#2c8652d952)"><path fill="#000000" d="M 337.4375 241.835938 L 195.648438 241.835938 C 192.570312 240.417969 188.898438 238.808594 185.003906 237.148438 C 185.886719 229.167969 187.574219 215.675781 190.175781 207.929688 C 191.097656 205.167969 193.117188 202.855469 195.714844 201.59375 C 201.539062 198.75 211.429688 194.582031 219.808594 191.140625 C 219.054688 196.742188 219.558594 202.480469 220.085938 205.886719 C 215.574219 207.160156 212.25 211.320312 212.25 216.242188 C 212.25 222.171875 217.070312 226.996094 222.992188 226.996094 C 228.917969 226.996094 233.734375 222.171875 233.734375 216.242188 C 233.734375 210.800781 229.675781 206.292969 224.4375 205.582031 C 223.796875 201.804688 223.285156 194.933594 224.566406 189.199219 C 230.535156 186.773438 235.605469 184.761719 237.917969 183.847656 L 259.796875 205.984375 C 260.207031 206.398438 260.761719 206.628906 261.339844 206.628906 L 261.359375 206.628906 C 261.945312 206.625 262.507812 206.382812 262.914062 205.957031 L 284.050781 183.859375 C 286.367188 184.773438 291.421875 186.78125 297.363281 189.195312 C 298.277344 193.5625 297.875 198.988281 297.363281 202.820312 C 296.140625 202.753906 294.890625 202.839844 293.632812 203.078125 C 287.304688 204.273438 282.027344 209.136719 280.195312 215.46875 C 278.390625 221.707031 277.207031 229.5625 277.0625 230.5625 C 277.027344 230.773438 277.023438 230.988281 277.054688 231.203125 C 277.1875 232.167969 277.9375 232.925781 278.898438 233.0625 L 284.839844 233.925781 C 285.410156 234.011719 285.992188 233.867188 286.453125 233.515625 C 286.914062 233.171875 287.222656 232.65625 287.304688 232.085938 L 287.726562 229.164062 C 287.902344 227.972656 287.078125 226.867188 285.890625 226.695312 C 284.699219 226.523438 283.59375 227.347656 283.425781 228.535156 L 283.3125 229.304688 L 281.699219 229.070312 C 282.179688 226.203125 283.128906 220.988281 284.375 216.679688 C 285.753906 211.910156 289.707031 208.25 294.441406 207.359375 C 296.953125 206.882812 299.28125 207.222656 301.558594 208.394531 C 305.84375 210.601562 308.589844 215.230469 308.558594 220.203125 C 308.53125 224.695312 307.960938 229.933594 307.605469 232.839844 L 305.992188 232.601562 L 306.101562 231.835938 C 306.273438 230.644531 305.449219 229.542969 304.261719 229.367188 C 303.074219 229.191406 301.972656 230.019531 301.796875 231.210938 L 301.375 234.132812 C 301.199219 235.324219 302.027344 236.429688 303.210938 236.601562 L 309.15625 237.464844 C 309.261719 237.480469 309.367188 237.488281 309.46875 237.488281 C 310.53125 237.488281 311.460938 236.707031 311.621094 235.625 C 311.671875 235.28125 312.863281 227.058594 312.90625 220.226562 C 312.949219 213.636719 309.273438 207.46875 303.546875 204.519531 C 302.917969 204.195312 302.285156 203.921875 301.636719 203.6875 C 302.160156 199.898438 302.5 195.332031 302.050781 191.105469 C 310.449219 194.554688 320.378906 198.746094 326.226562 201.59375 C 328.824219 202.859375 330.84375 205.167969 331.769531 207.933594 C 335 217.5625 336.824219 236.089844 337.4375 241.835938 Z M 337.4375 241.835938 " fill-opacity="1" fill-rule="nonzero"/></g><path fill="#000000" d="M 216.601562 216.242188 C 216.601562 219.769531 219.46875 222.640625 222.992188 222.640625 C 226.519531 222.640625 229.386719 219.769531 229.386719 216.242188 C 229.386719 212.710938 226.519531 209.839844 222.992188 209.839844 C 219.46875 209.839844 216.601562 212.710938 216.601562 216.242188 Z M 216.601562 216.242188 " fill-opacity="1" fill-rule="nonzero"/><path fill="#000000" d="M 108.917969 211.683594 C 117.226562 214.796875 130.210938 217.222656 145.621094 211.667969 C 148.675781 209.015625 152.933594 204.441406 156.46875 197.351562 C 161.179688 187.898438 162.464844 183.324219 163.230469 180.589844 C 163.910156 178.160156 164.324219 176.691406 166.574219 175.261719 C 168.824219 173.835938 170.0625 171.574219 170.0625 168.890625 C 170.0625 165.117188 166.976562 163.476562 166.847656 163.410156 C 165.78125 162.882812 165.351562 161.605469 165.859375 160.53125 C 169.796875 152.214844 169.527344 141.585938 165.117188 131.367188 C 159.765625 118.96875 149.234375 109.199219 136.941406 105.226562 C 127.011719 102.019531 118.617188 102.515625 111.984375 106.707031 C 107.125 109.777344 105.121094 113.691406 105.101562 113.730469 C 104.738281 114.453125 104.007812 114.914062 103.199219 114.929688 C 102.78125 114.941406 92.644531 115.398438 89.214844 128.160156 C 85.46875 142.113281 88.800781 160.886719 88.835938 161.074219 C 89.007812 162.03125 88.527344 162.988281 87.65625 163.417969 C 87.542969 163.476562 84.460938 165.117188 84.460938 168.890625 C 84.460938 171.578125 85.699219 173.839844 87.945312 175.261719 C 90.195312 176.691406 90.605469 178.160156 91.289062 180.589844 C 92.054688 183.320312 93.335938 187.894531 98.050781 197.351562 C 100.914062 203.097656 104.570312 207.914062 108.917969 211.683594 Z M 108.917969 211.683594 " fill-opacity="1" fill-rule="nonzero"/><path fill="#000000" d="M 202.929688 254.117188 C 201.929688 251.128906 199.746094 248.632812 196.941406 247.269531 C 185.515625 241.695312 159.8125 231.449219 151.324219 228.097656 C 134.175781 235.644531 115.957031 234.65625 103.097656 228.136719 C 97.046875 230.53125 69.050781 241.671875 57.585938 247.265625 C 54.730469 248.652344 52.605469 251.082031 51.589844 254.113281 C 50.144531 258.425781 48.8125 264.144531 47.628906 271.132812 L 206.890625 271.132812 C 205.710938 264.148438 204.382812 258.433594 202.929688 254.117188 Z M 202.929688 254.117188 " fill-opacity="1" fill-rule="nonzero"/><path fill="#000000" d="M 148.519531 224.566406 L 145.441406 216.335938 C 132.925781 220.46875 120.480469 220.234375 109.070312 216.363281 L 105.953125 224.675781 C 117.523438 230.039062 133.242188 230.953125 148.519531 224.566406 Z M 148.519531 224.566406 " fill-opacity="1" fill-rule="nonzero"/><g clip-path="url(#d109a106e2)"><path fill="#000000" d="M 212.316406 275.488281 C 203.324219 275.488281 51.117188 275.488281 42.203125 275.488281 C 39.644531 275.488281 37.5625 277.570312 37.5625 280.132812 L 37.5625 309.9375 L 216.953125 309.9375 L 216.953125 280.132812 C 216.953125 277.570312 214.875 275.488281 212.316406 275.488281 Z M 212.316406 275.488281 " fill-opacity="1" fill-rule="nonzero"/></g></svg>