<svg xmlns="http://www.w3.org/2000/svg" xmlns:xlink="http://www.w3.org/1999/xlink" width="500" zoomAndPan="magnify" viewBox="0 0 375 374.999991" height="500" preserveAspectRatio="xMidYMid meet" version="1.0"><defs><clipPath id="d39a3fa26d"><path d="M 37.648438 220.234375 L 297.226562 220.234375 L 297.226562 337.5 L 37.648438 337.5 Z M 37.648438 220.234375 " clip-rule="nonzero"/></clipPath><clipPath id="8cf4585c9c"><path d="M 198.589844 265.152344 L 279.191406 265.152344 L 279.191406 330.195312 L 198.589844 330.195312 Z M 198.589844 265.152344 " clip-rule="nonzero"/></clipPath><clipPath id="64d0c30505"><path d="M 273 76.089844 L 338 76.089844 L 338 133.089844 L 273 133.089844 Z M 273 76.089844 " clip-rule="nonzero"/></clipPath><clipPath id="5ab2e41121"><path d="M 275.902344 85.929688 C 270.703125 94.496094 274.367188 102.835938 278.972656 107.261719 L 305.890625 133.089844 L 332.246094 107.355469 C 336.527344 102.59375 338.167969 97.542969 337.257812 91.917969 C 335.996094 84.140625 329.585938 78.105469 321.667969 77.242188 C 316.808594 76.71875 312.117188 78.09375 308.457031 81.136719 C 307.472656 81.957031 306.589844 82.871094 305.820312 83.867188 C 304.910156 82.734375 303.84375 81.695312 302.636719 80.777344 C 298.425781 77.578125 293.0625 76.308594 287.914062 77.296875 C 283.039062 78.238281 278.660156 81.382812 275.902344 85.929688 Z M 275.902344 85.929688 " clip-rule="nonzero"/></clipPath></defs><rect x="-37.5" width="450" fill="#ffffff" y="-37.499999" height="449.999989" fill-opacity="1"/><rect x="-37.5" width="450" fill="#ffffff" y="-37.499999" height="449.999989" fill-opacity="1"/><path fill="#000000" d="M 180.625 83.886719 L 173.042969 83.886719 L 173.042969 91.46875 L 161.832031 91.46875 L 161.832031 83.886719 L 154.25 83.886719 L 154.25 72.667969 L 161.832031 72.667969 L 161.832031 65.191406 L 173.042969 65.191406 L 173.042969 72.667969 L 180.625 72.667969 Z M 237.964844 57.925781 C 233.90625 38.160156 100.96875 37.523438 96.910156 57.925781 L 91.894531 111.234375 L 242.980469 111.234375 L 237.964844 57.925781 " fill-opacity="1" fill-rule="nonzero"/><g clip-path="url(#d39a3fa26d)"><path fill="#000000" d="M 259.105469 324.574219 L 204.542969 324.574219 L 204.542969 288.039062 L 219.277344 288.039062 L 219.277344 298.933594 L 244.371094 298.933594 L 244.371094 288.039062 L 259.105469 288.039062 Z M 227.394531 271.050781 L 236.257812 271.050781 L 236.257812 290.816406 L 227.394531 290.816406 Z M 268.289062 249.367188 L 215.433594 220.628906 L 167.492188 301.175781 L 119.441406 220.628906 L 66.585938 249.367188 C 34.980469 266.5625 40.105469 303.742188 37.648438 337.5 L 297.226562 337.5 C 294.769531 303.742188 299.894531 266.5625 268.289062 249.367188 " fill-opacity="1" fill-rule="nonzero"/></g><path fill="#000000" d="M 139.300781 130.679688 C 145.816406 130.679688 151.152344 135.914062 151.152344 142.429688 C 151.152344 148.945312 145.816406 154.179688 139.300781 154.179688 C 132.789062 154.179688 127.558594 148.945312 127.558594 142.429688 C 127.558594 135.914062 132.789062 130.679688 139.300781 130.679688 Z M 167.492188 179.605469 L 181.480469 179.605469 C 179.449219 185.375 173.898438 189.542969 167.492188 189.542969 C 160.976562 189.542969 155.425781 185.375 153.394531 179.605469 Z M 195.574219 130.679688 C 202.085938 130.679688 207.320312 135.914062 207.320312 142.429688 C 207.320312 148.945312 202.085938 154.179688 195.574219 154.179688 C 189.0625 154.179688 183.722656 148.945312 183.722656 142.429688 C 183.722656 135.914062 189.0625 130.679688 195.574219 130.679688 Z M 139.085938 213.257812 C 116.453125 200.972656 105.347656 175.972656 105.347656 153.113281 C 105.347656 179.074219 138.128906 213.578125 167.492188 212.722656 C 196.746094 213.578125 229.527344 179.074219 229.527344 153.113281 C 229.527344 175.972656 218.421875 200.972656 195.789062 213.257812 C 215.113281 221.160156 240.738281 227.039062 266.902344 205.457031 C 248.214844 204.605469 244.265625 153.113281 244.265625 125.121094 C 244.265625 123.199219 244.15625 121.273438 244.050781 119.351562 L 90.824219 119.351562 C 90.71875 121.273438 90.613281 123.199219 90.613281 125.121094 C 90.613281 153.113281 86.660156 204.605469 67.972656 205.457031 C 94.136719 227.039062 119.761719 221.160156 139.085938 213.257812 " fill-opacity="1" fill-rule="nonzero"/><g clip-path="url(#8cf4585c9c)"><path fill="#000000" d="M 198.589844 265.152344 L 279.191406 265.152344 L 279.191406 330.195312 L 198.589844 330.195312 Z M 198.589844 265.152344 " fill-opacity="1" fill-rule="nonzero"/></g><g clip-path="url(#64d0c30505)"><g clip-path="url(#5ab2e41121)"><path fill="#000000" d="M 273.359375 76.96875 L 337.5 76.96875 L 337.5 133.089844 L 273.359375 133.089844 Z M 273.359375 76.96875 " fill-opacity="1" fill-rule="nonzero"/></g></g></svg>