<svg xmlns="http://www.w3.org/2000/svg" xmlns:xlink="http://www.w3.org/1999/xlink" width="500" zoomAndPan="magnify" viewBox="0 0 375 374.999991" height="500" preserveAspectRatio="xMidYMid meet" version="1.0"><defs><clipPath id="3a481a1a02"><path d="M 115 128 L 260 128 L 260 264.75 L 115 264.75 Z M 115 128 " clip-rule="nonzero"/></clipPath><clipPath id="0c787afb87"><path d="M 37.5 110.25 L 158 110.25 L 158 225 L 37.5 225 Z M 37.5 110.25 " clip-rule="nonzero"/></clipPath><clipPath id="b6c28e7646"><path d="M 217 110.25 L 337.5 110.25 L 337.5 225 L 217 225 Z M 217 110.25 " clip-rule="nonzero"/></clipPath></defs><g clip-path="url(#3a481a1a02)"><path fill="#000000" d="M 259.101562 180.28125 L 209.625 173.089844 L 187.5 128.257812 L 165.375 173.089844 L 115.886719 180.28125 L 151.695312 215.191406 L 143.246094 264.464844 L 187.5 241.203125 L 231.753906 264.464844 L 223.304688 215.191406 Z M 259.101562 180.28125 " fill-opacity="1" fill-rule="nonzero"/></g><g clip-path="url(#0c787afb87)"><path fill="#000000" d="M 98.210938 174.53125 L 143.40625 167.96875 L 157.65625 154.074219 L 116.144531 148.046875 L 97.582031 110.421875 L 79.011719 148.046875 L 37.5 154.074219 L 67.535156 183.363281 L 60.449219 224.710938 L 97.582031 205.1875 L 134.699219 224.710938 L 131.699219 207.179688 Z M 98.210938 174.53125 " fill-opacity="1" fill-rule="nonzero"/></g><g clip-path="url(#b6c28e7646)"><path fill="#000000" d="M 337.5 154.074219 L 295.988281 148.046875 L 277.417969 110.421875 L 258.855469 148.046875 L 217.34375 154.074219 L 231.59375 167.96875 L 276.789062 174.53125 L 243.308594 207.179688 L 240.300781 224.710938 L 277.417969 205.1875 L 314.5625 224.710938 L 307.464844 183.363281 Z M 337.5 154.074219 " fill-opacity="1" fill-rule="nonzero"/></g></svg>