<svg xmlns="http://www.w3.org/2000/svg" xmlns:xlink="http://www.w3.org/1999/xlink" width="500" zoomAndPan="magnify" viewBox="0 0 375 374.999991" height="500" preserveAspectRatio="xMidYMid meet" version="1.0"><defs><clipPath id="e8baa7d4bc"><path d="M 198.167969 37.5 L 337.667969 37.5 L 337.667969 255.75 L 198.167969 255.75 Z M 198.167969 37.5 " clip-rule="nonzero"/></clipPath><clipPath id="64cfecff9e"><path d="M 107.164062 78.433594 L 246.664062 78.433594 L 246.664062 296.683594 L 107.164062 296.683594 Z M 107.164062 78.433594 " clip-rule="nonzero"/></clipPath><clipPath id="7d80fa26d1"><path d="M 37.5 119.371094 L 177 119.371094 L 177 337.621094 L 37.5 337.621094 Z M 37.5 119.371094 " clip-rule="nonzero"/></clipPath></defs><rect x="-37.5" width="450" fill="#ffffff" y="-37.499999" height="449.999989" fill-opacity="1"/><rect x="-37.5" width="450" fill="#ffffff" y="-37.499999" height="449.999989" fill-opacity="1"/><path fill="#000000" d="M 223.371094 141.941406 C 219.640625 141.941406 216.605469 144.972656 216.605469 148.703125 C 216.605469 152.429688 219.640625 155.460938 223.371094 155.460938 C 227.101562 155.460938 230.132812 152.429688 230.132812 148.703125 C 230.132812 144.972656 227.101562 141.941406 223.371094 141.941406 Z M 223.371094 152 C 221.550781 152 220.070312 150.519531 220.070312 148.703125 C 220.070312 146.882812 221.550781 145.402344 223.371094 145.402344 C 225.191406 145.402344 226.671875 146.882812 226.671875 148.703125 C 226.671875 150.519531 225.191406 152 223.371094 152 Z M 223.371094 152 " fill-opacity="1" fill-rule="nonzero"/><path fill="#000000" d="M 287.765625 155.460938 C 291.492188 155.460938 294.527344 152.429688 294.527344 148.703125 C 294.527344 144.972656 291.492188 141.941406 287.765625 141.941406 C 284.035156 141.941406 281 144.972656 281 148.703125 C 281 152.429688 284.035156 155.460938 287.765625 155.460938 Z M 287.765625 145.402344 C 289.582031 145.402344 291.0625 146.882812 291.0625 148.703125 C 291.0625 150.519531 289.585938 152 287.765625 152 C 285.945312 152 284.464844 150.519531 284.464844 148.703125 C 284.464844 146.882812 285.945312 145.402344 287.765625 145.402344 Z M 287.765625 145.402344 " fill-opacity="1" fill-rule="nonzero"/><g clip-path="url(#e8baa7d4bc)"><path fill="#000000" d="M 332.539062 116.804688 C 333.449219 115.226562 333.945312 113.421875 333.945312 111.535156 L 333.945312 68.785156 C 333.945312 65.332031 332.277344 62.257812 329.703125 60.328125 L 329.703125 53.300781 C 329.703125 50.359375 327.308594 47.964844 324.363281 47.964844 L 322.371094 47.964844 C 319.425781 47.964844 317.03125 50.359375 317.03125 53.300781 L 317.03125 60.328125 C 314.457031 62.257812 312.789062 65.332031 312.789062 68.785156 L 312.789062 111.53125 C 312.789062 113.414062 313.28125 115.214844 314.1875 116.792969 L 307.265625 116.792969 L 307.265625 113.09375 C 307.265625 103.632812 302.410156 94.859375 294.492188 89.800781 C 295.402344 87.765625 295.8125 85.511719 295.640625 83.253906 L 293.082031 50.046875 C 292.542969 43.0625 286.632812 37.59375 279.625 37.59375 L 231.507812 37.59375 C 224.5 37.59375 218.589844 43.0625 218.050781 50.046875 L 215.496094 83.253906 C 215.320312 85.511719 215.730469 87.765625 216.644531 89.800781 C 208.722656 94.859375 203.871094 103.632812 203.871094 113.09375 L 203.871094 229.644531 C 200.605469 230.425781 198.167969 233.359375 198.167969 236.859375 L 198.167969 245.289062 C 198.167969 246.242188 198.945312 247.019531 199.902344 247.019531 L 207.117188 247.019531 L 207.117188 249.191406 C 207.117188 252.757812 210.019531 255.65625 213.585938 255.65625 L 220.632812 255.65625 C 224.203125 255.65625 227.105469 252.757812 227.105469 249.191406 L 227.105469 247.019531 L 284.027344 247.019531 L 284.027344 249.191406 C 284.027344 252.757812 286.929688 255.65625 290.5 255.65625 L 297.546875 255.65625 C 301.113281 255.65625 304.019531 252.757812 304.019531 249.191406 L 304.019531 247.019531 L 311.234375 247.019531 C 312.191406 247.019531 312.964844 246.242188 312.964844 245.289062 L 312.964844 236.222656 C 314.132812 236.011719 315.261719 235.71875 316.34375 235.328125 C 322.554688 233.101562 327.230469 228.105469 329.871094 220.871094 C 334.484375 208.234375 331.832031 191.261719 328.109375 180.355469 C 329.402344 173.699219 330.046875 165.925781 330.050781 156.992188 L 330.050781 131.585938 L 332.265625 131.585938 C 335.25 131.585938 337.683594 129.15625 337.683594 126.171875 L 337.683594 122.207031 C 337.683594 119.3125 335.398438 116.949219 332.539062 116.804688 Z M 320.492188 53.300781 C 320.492188 52.269531 321.335938 51.425781 322.371094 51.425781 L 324.363281 51.425781 C 325.398438 51.425781 326.238281 52.269531 326.238281 53.300781 L 326.238281 58.617188 C 325.324219 58.359375 324.363281 58.214844 323.367188 58.214844 C 322.371094 58.214844 321.40625 58.359375 320.492188 58.617188 Z M 316.253906 102.480469 L 323 102.480469 C 323.957031 102.480469 324.734375 101.703125 324.734375 100.75 C 324.734375 99.792969 323.957031 99.019531 323 99.019531 L 316.253906 99.019531 L 316.253906 86.871094 L 323 86.871094 C 323.957031 86.871094 324.734375 86.097656 324.734375 85.140625 C 324.734375 84.183594 323.957031 83.410156 323 83.410156 L 316.253906 83.410156 L 316.253906 71.265625 L 323 71.265625 C 323.957031 71.265625 324.734375 70.488281 324.734375 69.53125 C 324.734375 68.578125 323.957031 67.800781 323 67.800781 L 316.328125 67.800781 C 316.8125 64.347656 319.777344 61.679688 323.367188 61.679688 C 327.289062 61.679688 330.480469 64.867188 330.480469 68.785156 L 330.480469 111.53125 C 330.480469 113.5625 329.628906 115.445312 328.136719 116.792969 L 318.59375 116.792969 C 317.105469 115.445312 316.253906 113.5625 316.253906 111.53125 Z M 307.265625 131.585938 L 316.886719 131.585938 L 316.886719 156.988281 C 316.878906 176.652344 313.5625 189.570312 307.265625 194.6875 Z M 320.351562 156.988281 L 320.351562 131.585938 L 326.585938 131.585938 L 326.585938 156.988281 C 326.574219 183.554688 320.914062 199.203125 309.28125 204.832031 C 306.550781 206.152344 303.289062 206.824219 299.585938 206.824219 C 284.941406 206.824219 266.226562 196.726562 255.082031 182.8125 C 254.523438 182.113281 254.292969 181.242188 254.433594 180.359375 C 254.574219 179.484375 255.0625 178.734375 255.804688 178.25 C 257.160156 177.371094 258.949219 177.675781 259.96875 178.960938 C 271.117188 193 288.714844 200.578125 299.613281 200.578125 C 302.367188 200.578125 304.703125 200.121094 306.5625 199.222656 C 315.703125 194.800781 320.339844 180.59375 320.351562 156.988281 Z M 317.503906 216.363281 C 316.230469 219.855469 314.34375 222.070312 311.898438 222.949219 C 310.941406 223.292969 309.835938 223.464844 308.621094 223.464844 C 308.183594 223.464844 307.726562 223.433594 307.265625 223.390625 L 307.265625 209.273438 C 308.503906 208.921875 309.683594 208.484375 310.789062 207.949219 C 313.953125 206.417969 316.714844 204.261719 319.089844 201.476562 C 319.441406 207.273438 318.894531 212.546875 317.503906 216.363281 Z M 303.800781 209.996094 L 303.800781 222.726562 C 295.917969 220.535156 285.71875 213.585938 276.324219 204.054688 C 284.167969 207.984375 292.335938 210.285156 299.585938 210.285156 C 301.046875 210.285156 302.453125 210.183594 303.800781 209.996094 Z M 252.378906 184.972656 C 252.621094 185.273438 252.867188 185.570312 253.113281 185.863281 C 251.96875 186.785156 251.164062 188.046875 250.832031 189.511719 C 250.425781 191.289062 250.757812 193.105469 251.769531 194.625 C 255.121094 199.671875 259.019531 204.640625 263.230469 209.289062 L 245.660156 209.289062 L 245.660156 164.625 L 265.476562 164.625 L 265.476562 180.023438 C 264.5 178.992188 263.566406 177.921875 262.679688 176.808594 C 260.542969 174.117188 256.773438 173.488281 253.914062 175.351562 C 252.367188 176.359375 251.308594 177.984375 251.015625 179.8125 C 250.71875 181.644531 251.21875 183.523438 252.378906 184.972656 Z M 231.667969 65.15625 L 241.375 65.15625 C 242.332031 65.15625 243.109375 64.378906 243.109375 63.421875 C 243.109375 62.46875 242.332031 61.691406 241.375 61.691406 L 231.878906 61.691406 L 232.328125 54.328125 L 241.375 54.328125 C 242.332031 54.328125 243.109375 53.554688 243.109375 52.597656 C 243.109375 51.640625 242.332031 50.867188 241.375 50.867188 L 232.539062 50.867188 L 233.136719 41.054688 L 277.996094 41.054688 L 278.59375 50.867188 L 269.757812 50.867188 C 268.800781 50.867188 268.027344 51.640625 268.027344 52.597656 C 268.027344 53.554688 268.800781 54.328125 269.757812 54.328125 L 278.804688 54.328125 L 279.253906 61.691406 L 269.757812 61.691406 C 268.800781 61.691406 268.027344 62.46875 268.027344 63.421875 C 268.027344 64.378906 268.800781 65.15625 269.757812 65.15625 L 279.464844 65.15625 L 280.253906 78.070312 L 230.878906 78.070312 Z M 218.949219 83.519531 L 221.503906 50.308594 C 221.855469 45.75 225.292969 42.058594 229.65625 41.230469 L 227.308594 79.695312 C 227.28125 80.171875 227.449219 80.640625 227.777344 80.988281 C 228.105469 81.335938 228.5625 81.53125 229.039062 81.53125 L 282.097656 81.53125 C 282.574219 81.53125 283.03125 81.335938 283.355469 80.988281 C 283.683594 80.640625 283.851562 80.171875 283.824219 79.695312 L 281.476562 41.230469 C 285.839844 42.058594 289.277344 45.75 289.628906 50.308594 L 292.183594 83.519531 C 292.402344 86.335938 291.464844 89.027344 289.542969 91.097656 C 287.621094 93.171875 285.007812 94.3125 282.183594 94.3125 L 228.953125 94.3125 C 226.125 94.3125 223.511719 93.171875 221.589844 91.097656 C 219.671875 89.027344 218.730469 86.335938 218.949219 83.519531 Z M 218.453125 92.753906 C 218.644531 92.992188 218.839844 93.226562 219.050781 93.449219 C 221.597656 96.199219 225.203125 97.773438 228.953125 97.773438 L 282.179688 97.773438 C 285.929688 97.773438 289.539062 96.199219 292.085938 93.453125 C 292.292969 93.226562 292.488281 92.992188 292.683594 92.753906 C 299.09375 96.871094 303.191406 103.78125 303.738281 111.363281 L 207.398438 111.363281 C 207.941406 103.78125 212.042969 96.871094 218.453125 92.753906 Z M 289.933594 114.824219 L 289.933594 133.9375 L 221.199219 133.9375 L 221.199219 114.824219 Z M 207.332031 114.824219 L 217.734375 114.824219 L 217.734375 135.667969 C 217.734375 136.625 218.511719 137.398438 219.46875 137.398438 L 291.667969 137.398438 C 292.621094 137.398438 293.398438 136.625 293.398438 135.667969 L 293.398438 114.824219 L 303.800781 114.824219 L 303.800781 196.582031 C 302.625 196.933594 301.222656 197.117188 299.613281 197.117188 C 291.296875 197.117188 278.761719 192.09375 268.9375 183.382812 L 268.9375 162.894531 C 268.9375 161.941406 268.164062 161.164062 267.207031 161.164062 L 243.925781 161.164062 C 242.96875 161.164062 242.195312 161.941406 242.195312 162.894531 L 242.195312 211.019531 C 242.195312 211.976562 242.96875 212.75 243.925781 212.75 L 266.472656 212.75 C 270.6875 217.078125 275.136719 221.042969 279.605469 224.410156 C 282.113281 226.296875 284.589844 227.972656 287.023438 229.429688 L 207.332031 229.429688 Z M 223.640625 249.191406 C 223.640625 250.847656 222.292969 252.195312 220.632812 252.195312 L 213.585938 252.195312 C 211.929688 252.195312 210.578125 250.847656 210.578125 249.191406 L 210.578125 247.019531 L 223.640625 247.019531 Z M 300.554688 249.191406 C 300.554688 250.847656 299.207031 252.195312 297.546875 252.195312 L 290.5 252.195312 C 288.839844 252.195312 287.492188 250.847656 287.492188 249.191406 L 287.492188 247.019531 L 300.554688 247.019531 Z M 309.5 243.558594 L 201.632812 243.558594 L 201.632812 236.859375 C 201.632812 234.671875 203.414062 232.894531 205.601562 232.894531 L 293.59375 232.894531 C 298.703125 235.160156 303.996094 236.441406 309.5 236.578125 Z M 326.617188 219.6875 C 324.339844 225.921875 320.382812 230.203125 315.171875 232.070312 C 313.210938 232.773438 311.046875 233.132812 308.742188 233.132812 C 301.019531 233.132812 291.667969 229.160156 281.691406 221.644531 C 271.746094 214.152344 261.890625 203.605469 254.65625 192.710938 C 254.175781 191.988281 254.015625 191.125 254.207031 190.28125 C 254.378906 189.539062 254.796875 188.90625 255.402344 188.464844 C 258.632812 191.9375 262.296875 195.128906 266.214844 197.9375 C 280.050781 215.011719 297.472656 226.925781 308.621094 226.925781 C 310.238281 226.925781 311.730469 226.683594 313.066406 226.207031 C 316.527344 224.964844 319.113281 222.054688 320.757812 217.550781 C 322.667969 212.316406 323.160156 205.089844 322.164062 197.152344 C 323.890625 194.246094 325.332031 190.867188 326.488281 187.007812 C 329.574219 198.933594 329.691406 211.265625 326.617188 219.6875 Z M 334.21875 126.171875 C 334.21875 127.246094 333.339844 128.125 332.261719 128.125 L 307.265625 128.125 L 307.265625 120.253906 L 332.261719 120.253906 C 333.339844 120.253906 334.21875 121.128906 334.21875 122.207031 Z M 334.21875 126.171875 " fill-opacity="1" fill-rule="nonzero"/></g><path fill="#000000" d="M 132.367188 182.875 C 128.636719 182.875 125.601562 185.910156 125.601562 189.636719 C 125.601562 193.363281 128.636719 196.394531 132.367188 196.394531 C 136.097656 196.394531 139.128906 193.363281 139.128906 189.636719 C 139.128906 185.910156 136.097656 182.875 132.367188 182.875 Z M 132.367188 192.933594 C 130.546875 192.933594 129.066406 191.453125 129.066406 189.636719 C 129.066406 187.816406 130.546875 186.339844 132.367188 186.339844 C 134.1875 186.339844 135.667969 187.816406 135.667969 189.636719 C 135.667969 191.453125 134.1875 192.933594 132.367188 192.933594 Z M 132.367188 192.933594 " fill-opacity="1" fill-rule="nonzero"/><path fill="#000000" d="M 196.761719 196.394531 C 200.488281 196.394531 203.523438 193.363281 203.523438 189.636719 C 203.523438 185.910156 200.488281 182.875 196.761719 182.875 C 193.03125 182.875 189.996094 185.910156 189.996094 189.636719 C 189.996094 193.363281 193.03125 196.394531 196.761719 196.394531 Z M 196.761719 186.339844 C 198.578125 186.339844 200.0625 187.816406 200.0625 189.636719 C 200.0625 191.453125 198.582031 192.933594 196.761719 192.933594 C 194.941406 192.933594 193.460938 191.453125 193.460938 189.636719 C 193.460938 187.816406 194.941406 186.339844 196.761719 186.339844 Z M 196.761719 186.339844 " fill-opacity="1" fill-rule="nonzero"/><g clip-path="url(#64cfecff9e)"><path fill="#000000" d="M 241.535156 157.742188 C 242.445312 156.164062 242.941406 154.355469 242.941406 152.46875 L 242.941406 109.722656 C 242.941406 106.265625 241.273438 103.195312 238.699219 101.261719 L 238.699219 94.238281 C 238.699219 91.292969 236.304688 88.902344 233.359375 88.902344 L 231.367188 88.902344 C 228.421875 88.902344 226.027344 91.292969 226.027344 94.238281 L 226.027344 101.261719 C 223.453125 103.195312 221.785156 106.265625 221.785156 109.722656 L 221.785156 152.46875 C 221.785156 154.351562 222.277344 156.152344 223.183594 157.726562 L 216.261719 157.726562 L 216.261719 154.027344 C 216.261719 144.570312 211.40625 135.792969 203.488281 130.738281 C 204.398438 128.699219 204.808594 126.449219 204.636719 124.1875 L 202.078125 90.980469 C 201.539062 83.996094 195.628906 78.527344 188.621094 78.527344 L 140.503906 78.527344 C 133.496094 78.527344 127.585938 83.996094 127.046875 90.980469 L 124.492188 124.1875 C 124.316406 126.449219 124.726562 128.699219 125.640625 130.738281 C 117.71875 135.792969 112.867188 144.570312 112.867188 154.027344 L 112.867188 270.578125 C 109.601562 271.359375 107.164062 274.292969 107.164062 277.792969 L 107.164062 286.222656 C 107.164062 287.179688 107.941406 287.953125 108.898438 287.953125 L 116.113281 287.953125 L 116.113281 290.125 C 116.113281 293.691406 119.015625 296.59375 122.582031 296.59375 L 129.628906 296.59375 C 133.199219 296.59375 136.101562 293.691406 136.101562 290.125 L 136.101562 287.953125 L 193.023438 287.953125 L 193.023438 290.125 C 193.023438 293.691406 195.925781 296.59375 199.496094 296.59375 L 206.542969 296.59375 C 210.113281 296.59375 213.015625 293.691406 213.015625 290.125 L 213.015625 287.953125 L 220.230469 287.953125 C 221.1875 287.953125 221.960938 287.179688 221.960938 286.222656 L 221.960938 277.15625 C 223.128906 276.949219 224.257812 276.652344 225.339844 276.265625 C 231.550781 274.039062 236.226562 269.039062 238.867188 261.804688 C 243.480469 249.167969 240.828125 232.195312 237.105469 221.289062 C 238.398438 214.632812 239.042969 206.859375 239.046875 197.925781 L 239.046875 172.519531 L 241.261719 172.519531 C 244.246094 172.519531 246.679688 170.089844 246.679688 167.105469 L 246.679688 163.140625 C 246.679688 160.25 244.394531 157.886719 241.535156 157.742188 Z M 229.488281 94.238281 C 229.488281 93.203125 230.332031 92.363281 231.367188 92.363281 L 233.359375 92.363281 C 234.394531 92.363281 235.234375 93.203125 235.234375 94.238281 L 235.234375 99.550781 C 234.320312 99.292969 233.359375 99.152344 232.363281 99.152344 C 231.367188 99.152344 230.402344 99.292969 229.488281 99.550781 Z M 225.25 143.414062 L 231.996094 143.414062 C 232.953125 143.414062 233.730469 142.640625 233.730469 141.683594 C 233.730469 140.726562 232.953125 139.953125 231.996094 139.953125 L 225.25 139.953125 L 225.25 127.804688 L 231.996094 127.804688 C 232.953125 127.804688 233.730469 127.03125 233.730469 126.074219 C 233.730469 125.121094 232.953125 124.34375 231.996094 124.34375 L 225.25 124.34375 L 225.25 112.199219 L 231.996094 112.199219 C 232.953125 112.199219 233.730469 111.421875 233.730469 110.46875 C 233.730469 109.511719 232.953125 108.738281 231.996094 108.738281 L 225.324219 108.738281 C 225.808594 105.28125 228.773438 102.613281 232.363281 102.613281 C 236.285156 102.613281 239.476562 105.800781 239.476562 109.722656 L 239.476562 152.46875 C 239.476562 154.496094 238.625 156.378906 237.132812 157.726562 L 227.589844 157.726562 C 226.101562 156.378906 225.25 154.496094 225.25 152.46875 Z M 216.261719 172.519531 L 225.882812 172.519531 L 225.882812 197.921875 C 225.875 217.589844 222.558594 230.507812 216.261719 235.621094 Z M 229.347656 197.921875 L 229.347656 172.519531 L 235.582031 172.519531 L 235.582031 197.925781 C 235.570312 224.488281 229.910156 240.140625 218.277344 245.765625 C 215.546875 247.085938 212.285156 247.757812 208.582031 247.757812 C 193.9375 247.757812 175.222656 237.660156 164.078125 223.746094 C 163.519531 223.046875 163.289062 222.175781 163.429688 221.296875 C 163.570312 220.417969 164.058594 219.671875 164.800781 219.1875 C 166.15625 218.308594 167.945312 218.609375 168.964844 219.894531 C 180.113281 233.9375 197.710938 241.511719 208.609375 241.511719 C 211.363281 241.511719 213.699219 241.054688 215.5625 240.15625 C 224.699219 235.738281 229.335938 221.527344 229.347656 197.921875 Z M 226.5 257.300781 C 225.226562 260.789062 223.339844 263.003906 220.894531 263.882812 C 219.9375 264.226562 218.832031 264.398438 217.617188 264.398438 C 217.179688 264.398438 216.722656 264.371094 216.261719 264.324219 L 216.261719 250.207031 C 217.5 249.855469 218.679688 249.417969 219.785156 248.882812 C 222.949219 247.351562 225.710938 245.195312 228.085938 242.410156 C 228.4375 248.210938 227.894531 253.480469 226.5 257.300781 Z M 212.796875 250.929688 L 212.796875 263.660156 C 204.914062 261.46875 194.714844 254.519531 185.320312 244.988281 C 193.164062 248.917969 201.332031 251.21875 208.582031 251.21875 C 210.042969 251.21875 211.449219 251.117188 212.796875 250.929688 Z M 161.375 225.910156 C 161.617188 226.207031 161.863281 226.503906 162.109375 226.800781 C 160.964844 227.71875 160.160156 228.984375 159.828125 230.445312 C 159.421875 232.222656 159.753906 234.039062 160.765625 235.558594 C 164.117188 240.605469 168.019531 245.574219 172.226562 250.222656 L 154.65625 250.222656 L 154.65625 205.5625 L 174.472656 205.5625 L 174.472656 220.960938 C 173.496094 219.925781 172.5625 218.855469 171.675781 217.742188 C 169.539062 215.050781 165.769531 214.425781 162.914062 216.285156 C 161.363281 217.292969 160.304688 218.921875 160.011719 220.746094 C 159.714844 222.578125 160.214844 224.460938 161.375 225.910156 Z M 140.664062 106.089844 L 150.371094 106.089844 C 151.328125 106.089844 152.105469 105.3125 152.105469 104.359375 C 152.105469 103.402344 151.328125 102.628906 150.371094 102.628906 L 140.875 102.628906 L 141.324219 95.261719 L 150.371094 95.261719 C 151.328125 95.261719 152.105469 94.488281 152.105469 93.53125 C 152.105469 92.578125 151.328125 91.800781 150.371094 91.800781 L 141.535156 91.800781 L 142.132812 81.988281 L 186.992188 81.988281 L 187.589844 91.800781 L 178.753906 91.800781 C 177.796875 91.800781 177.023438 92.578125 177.023438 93.53125 C 177.023438 94.488281 177.796875 95.261719 178.753906 95.261719 L 187.800781 95.261719 L 188.25 102.628906 L 178.753906 102.628906 C 177.796875 102.628906 177.023438 103.402344 177.023438 104.359375 C 177.023438 105.3125 177.796875 106.089844 178.753906 106.089844 L 188.460938 106.089844 L 189.25 119.003906 L 139.875 119.003906 Z M 127.945312 124.453125 L 130.5 91.246094 C 130.851562 86.683594 134.289062 82.992188 138.652344 82.164062 L 136.304688 120.628906 C 136.277344 121.105469 136.445312 121.574219 136.773438 121.921875 C 137.101562 122.269531 137.558594 122.46875 138.035156 122.46875 L 191.09375 122.46875 C 191.570312 122.46875 192.027344 122.269531 192.351562 121.921875 C 192.679688 121.574219 192.851562 121.105469 192.820312 120.628906 L 190.472656 82.164062 C 194.835938 82.992188 198.273438 86.683594 198.625 91.246094 L 201.179688 124.453125 C 201.398438 127.269531 200.460938 129.960938 198.539062 132.035156 C 196.617188 134.105469 194.003906 135.25 191.179688 135.25 L 137.949219 135.25 C 135.121094 135.25 132.507812 134.105469 130.585938 132.035156 C 128.667969 129.960938 127.726562 127.269531 127.945312 124.453125 Z M 127.449219 133.6875 C 127.640625 133.925781 127.835938 134.160156 128.046875 134.386719 C 130.59375 137.132812 134.203125 138.710938 137.949219 138.710938 L 191.175781 138.710938 C 194.925781 138.710938 198.535156 137.132812 201.082031 134.386719 C 201.289062 134.160156 201.488281 133.925781 201.679688 133.6875 C 208.089844 137.808594 212.1875 144.714844 212.734375 152.296875 L 116.394531 152.296875 C 116.9375 144.714844 121.039062 137.808594 127.449219 133.6875 Z M 198.929688 155.757812 L 198.929688 174.871094 L 130.195312 174.871094 L 130.195312 155.757812 Z M 116.328125 155.757812 L 126.730469 155.757812 L 126.730469 176.601562 C 126.730469 177.558594 127.507812 178.332031 128.464844 178.332031 L 200.664062 178.332031 C 201.617188 178.332031 202.394531 177.558594 202.394531 176.601562 L 202.394531 155.757812 L 212.796875 155.757812 L 212.796875 237.519531 C 211.621094 237.871094 210.21875 238.050781 208.609375 238.050781 C 200.292969 238.050781 187.757812 233.027344 177.933594 224.316406 L 177.933594 203.832031 C 177.933594 202.875 177.160156 202.101562 176.203125 202.101562 L 152.921875 202.101562 C 151.964844 202.101562 151.191406 202.875 151.191406 203.832031 L 151.191406 251.953125 C 151.191406 252.910156 151.964844 253.683594 152.921875 253.683594 L 175.46875 253.683594 C 179.683594 258.015625 184.132812 261.976562 188.601562 265.34375 C 191.109375 267.230469 193.585938 268.90625 196.019531 270.367188 L 116.328125 270.367188 Z M 132.636719 290.125 C 132.636719 291.78125 131.289062 293.132812 129.628906 293.132812 L 122.582031 293.132812 C 120.925781 293.132812 119.574219 291.78125 119.574219 290.125 L 119.574219 287.953125 L 132.636719 287.953125 Z M 209.550781 290.125 C 209.550781 291.78125 208.203125 293.132812 206.542969 293.132812 L 199.496094 293.132812 C 197.835938 293.132812 196.488281 291.78125 196.488281 290.125 L 196.488281 287.953125 L 209.550781 287.953125 Z M 218.496094 284.492188 L 110.628906 284.492188 L 110.628906 277.792969 C 110.628906 275.605469 112.410156 273.828125 114.597656 273.828125 L 202.589844 273.828125 C 207.699219 276.09375 212.992188 277.375 218.496094 277.515625 Z M 235.613281 260.621094 C 233.335938 266.855469 229.378906 271.136719 224.167969 273.007812 C 222.207031 273.710938 220.042969 274.066406 217.738281 274.066406 C 210.015625 274.066406 200.664062 270.09375 190.6875 262.582031 C 180.742188 255.085938 170.886719 244.542969 163.652344 233.644531 C 163.171875 232.921875 163.011719 232.058594 163.203125 231.214844 C 163.375 230.472656 163.792969 229.839844 164.398438 229.398438 C 167.628906 232.871094 171.292969 236.0625 175.210938 238.871094 C 189.046875 255.945312 206.46875 267.859375 217.617188 267.859375 C 219.234375 267.859375 220.726562 267.617188 222.0625 267.140625 C 225.523438 265.898438 228.109375 262.988281 229.753906 258.484375 C 231.664062 253.25 232.15625 246.023438 231.160156 238.085938 C 232.886719 235.179688 234.328125 231.800781 235.484375 227.941406 C 238.570312 239.871094 238.6875 252.199219 235.613281 260.621094 Z M 243.214844 167.105469 C 243.214844 168.183594 242.335938 169.058594 241.257812 169.058594 L 216.261719 169.058594 L 216.261719 161.1875 L 241.257812 161.1875 C 242.335938 161.1875 243.214844 162.066406 243.214844 163.140625 Z M 243.214844 167.105469 " fill-opacity="1" fill-rule="nonzero"/></g><path fill="#000000" d="M 62.699219 223.8125 C 58.972656 223.8125 55.9375 226.84375 55.9375 230.570312 C 55.9375 234.296875 58.972656 237.332031 62.699219 237.332031 C 66.429688 237.332031 69.464844 234.296875 69.464844 230.570312 C 69.464844 226.84375 66.429688 223.8125 62.699219 223.8125 Z M 62.699219 233.871094 C 60.882812 233.871094 59.402344 232.390625 59.402344 230.570312 C 59.402344 228.753906 60.882812 227.273438 62.699219 227.273438 C 64.519531 227.273438 66 228.753906 66 230.570312 C 66 232.390625 64.519531 233.871094 62.699219 233.871094 Z M 62.699219 233.871094 " fill-opacity="1" fill-rule="nonzero"/><path fill="#000000" d="M 127.09375 237.332031 C 130.824219 237.332031 133.859375 234.296875 133.859375 230.570312 C 133.859375 226.84375 130.824219 223.8125 127.09375 223.8125 C 123.363281 223.8125 120.332031 226.84375 120.332031 230.570312 C 120.332031 234.296875 123.363281 237.332031 127.09375 237.332031 Z M 127.09375 227.273438 C 128.914062 227.273438 130.394531 228.753906 130.394531 230.570312 C 130.394531 232.390625 128.914062 233.871094 127.09375 233.871094 C 125.273438 233.871094 123.792969 232.390625 123.792969 230.570312 C 123.792969 228.753906 125.273438 227.273438 127.09375 227.273438 Z M 127.09375 227.273438 " fill-opacity="1" fill-rule="nonzero"/><g clip-path="url(#7d80fa26d1)"><path fill="#000000" d="M 171.871094 198.675781 C 172.78125 197.097656 173.273438 195.292969 173.273438 193.402344 L 173.273438 150.65625 C 173.273438 147.203125 171.605469 144.128906 169.035156 142.199219 L 169.035156 135.171875 C 169.035156 132.230469 166.640625 129.835938 163.695312 129.835938 L 161.699219 129.835938 C 158.757812 129.835938 156.359375 132.230469 156.359375 135.171875 L 156.359375 142.199219 C 153.789062 144.128906 152.121094 147.203125 152.121094 150.65625 L 152.121094 193.402344 C 152.121094 195.285156 152.609375 197.085938 153.515625 198.660156 L 146.597656 198.660156 L 146.597656 194.960938 C 146.597656 185.503906 141.742188 176.730469 133.820312 171.671875 C 134.734375 169.636719 135.144531 167.382812 134.96875 165.121094 L 132.414062 131.914062 C 131.875 124.933594 125.964844 119.460938 118.957031 119.460938 L 70.839844 119.460938 C 63.832031 119.460938 57.921875 124.933594 57.382812 131.914062 L 54.828125 165.121094 C 54.652344 167.382812 55.0625 169.636719 55.972656 171.671875 C 48.054688 176.730469 43.199219 185.503906 43.199219 194.960938 L 43.199219 311.511719 C 39.9375 312.296875 37.5 315.230469 37.5 318.726562 L 37.5 327.15625 C 37.5 328.113281 38.277344 328.886719 39.230469 328.886719 L 46.445312 328.886719 L 46.445312 331.058594 C 46.445312 334.625 49.351562 337.527344 52.917969 337.527344 L 59.964844 337.527344 C 63.535156 337.527344 66.4375 334.625 66.4375 331.058594 L 66.4375 328.886719 L 123.359375 328.886719 L 123.359375 331.058594 C 123.359375 334.625 126.261719 337.527344 129.832031 337.527344 L 136.878906 337.527344 C 140.445312 337.527344 143.347656 334.625 143.347656 331.058594 L 143.347656 328.886719 L 150.5625 328.886719 C 151.519531 328.886719 152.296875 328.113281 152.296875 327.15625 L 152.296875 318.09375 C 153.464844 317.882812 154.59375 317.585938 155.671875 317.199219 C 161.882812 314.972656 166.5625 309.972656 169.203125 302.742188 C 173.8125 290.105469 171.164062 273.132812 167.4375 262.226562 C 168.730469 255.566406 169.378906 247.792969 169.382812 238.859375 L 169.382812 213.453125 L 171.59375 213.453125 C 174.582031 213.453125 177.011719 211.027344 177.011719 208.039062 L 177.011719 204.078125 C 177.011719 201.183594 174.730469 198.820312 171.871094 198.675781 Z M 159.824219 135.171875 C 159.824219 134.136719 160.664062 133.296875 161.699219 133.296875 L 163.695312 133.296875 C 164.726562 133.296875 165.570312 134.136719 165.570312 135.171875 L 165.570312 140.484375 C 164.65625 140.226562 163.691406 140.085938 162.695312 140.085938 C 161.699219 140.085938 160.738281 140.226562 159.824219 140.484375 Z M 155.582031 184.347656 L 162.332031 184.347656 C 163.289062 184.347656 164.0625 183.574219 164.0625 182.617188 C 164.0625 181.664062 163.289062 180.886719 162.332031 180.886719 L 155.582031 180.886719 L 155.582031 168.742188 L 162.332031 168.742188 C 163.289062 168.742188 164.0625 167.964844 164.0625 167.011719 C 164.0625 166.054688 163.289062 165.28125 162.332031 165.28125 L 155.582031 165.28125 L 155.582031 153.132812 L 162.332031 153.132812 C 163.289062 153.132812 164.0625 152.359375 164.0625 151.402344 C 164.0625 150.445312 163.289062 149.671875 162.332031 149.671875 L 155.660156 149.671875 C 156.140625 146.21875 159.109375 143.546875 162.695312 143.546875 C 166.621094 143.546875 169.8125 146.738281 169.8125 150.65625 L 169.8125 193.402344 C 169.8125 195.429688 168.960938 197.316406 167.46875 198.660156 L 157.925781 198.660156 C 156.4375 197.3125 155.582031 195.429688 155.582031 193.402344 Z M 146.59375 213.453125 L 156.21875 213.453125 L 156.21875 238.855469 C 156.210938 258.523438 152.894531 271.441406 146.59375 276.554688 Z M 159.679688 238.859375 L 159.679688 213.453125 L 165.917969 213.453125 L 165.917969 238.859375 C 165.90625 265.425781 160.246094 281.074219 148.613281 286.703125 C 145.878906 288.023438 142.617188 288.691406 138.914062 288.691406 C 124.273438 288.691406 105.558594 278.59375 94.414062 264.679688 C 93.855469 263.980469 93.625 263.113281 93.765625 262.230469 C 93.90625 261.355469 94.394531 260.605469 95.136719 260.121094 C 96.488281 259.242188 98.277344 259.546875 99.296875 260.832031 C 110.449219 274.871094 128.046875 282.449219 138.945312 282.449219 C 141.695312 282.449219 144.035156 281.992188 145.894531 281.09375 C 155.03125 276.671875 159.671875 262.460938 159.679688 238.859375 Z M 156.835938 298.234375 C 155.558594 301.726562 153.671875 303.941406 151.230469 304.816406 C 150.269531 305.160156 149.167969 305.335938 147.953125 305.335938 C 147.515625 305.335938 147.058594 305.304688 146.59375 305.261719 L 146.59375 291.144531 C 147.832031 290.789062 149.011719 290.351562 150.121094 289.816406 C 153.285156 288.289062 156.046875 286.132812 158.421875 283.347656 C 158.773438 289.144531 158.226562 294.417969 156.835938 298.234375 Z M 143.132812 291.867188 L 143.132812 304.59375 C 135.246094 302.402344 125.050781 295.457031 115.65625 285.921875 C 123.5 289.855469 131.664062 292.152344 138.914062 292.152344 C 140.378906 292.15625 141.78125 292.054688 143.132812 291.867188 Z M 91.710938 266.84375 C 91.949219 267.144531 92.199219 267.4375 92.445312 267.734375 C 91.296875 268.65625 90.496094 269.917969 90.164062 271.378906 C 89.757812 273.15625 90.089844 274.972656 91.101562 276.496094 C 94.453125 281.539062 98.351562 286.511719 102.558594 291.160156 L 84.988281 291.160156 L 84.988281 246.496094 L 104.804688 246.496094 L 104.804688 261.894531 C 103.832031 260.863281 102.894531 259.789062 102.011719 258.679688 C 99.875 255.984375 96.105469 255.359375 93.246094 257.21875 C 91.695312 258.230469 90.640625 259.855469 90.34375 261.679688 C 90.050781 263.511719 90.546875 265.394531 91.710938 266.84375 Z M 70.996094 147.023438 L 80.707031 147.023438 C 81.664062 147.023438 82.4375 146.25 82.4375 145.292969 C 82.4375 144.335938 81.664062 143.5625 80.707031 143.5625 L 71.210938 143.5625 L 71.660156 136.199219 L 80.707031 136.199219 C 81.664062 136.199219 82.4375 135.421875 82.4375 134.46875 C 82.4375 133.511719 81.664062 132.738281 80.707031 132.738281 L 71.871094 132.738281 L 72.46875 122.921875 L 117.328125 122.921875 L 117.925781 132.738281 L 109.089844 132.738281 C 108.132812 132.738281 107.355469 133.511719 107.355469 134.46875 C 107.355469 135.421875 108.132812 136.199219 109.089844 136.199219 L 118.136719 136.199219 L 118.585938 143.5625 L 109.089844 143.5625 C 108.132812 143.5625 107.355469 144.335938 107.355469 145.292969 C 107.355469 146.25 108.132812 147.023438 109.089844 147.023438 L 118.796875 147.023438 L 119.585938 159.941406 L 70.210938 159.941406 Z M 58.28125 165.386719 L 60.835938 132.179688 C 61.1875 127.617188 64.625 123.925781 68.988281 123.097656 L 66.640625 161.566406 C 66.613281 162.042969 66.78125 162.507812 67.109375 162.855469 C 67.433594 163.203125 67.890625 163.402344 68.371094 163.402344 L 121.425781 163.402344 C 121.90625 163.402344 122.359375 163.203125 122.6875 162.855469 C 123.015625 162.507812 123.183594 162.042969 123.15625 161.566406 L 120.808594 123.097656 C 125.171875 123.925781 128.609375 127.617188 128.960938 132.179688 L 131.515625 165.386719 C 131.734375 168.203125 130.792969 170.898438 128.875 172.96875 C 126.953125 175.042969 124.339844 176.183594 121.511719 176.183594 L 68.28125 176.183594 C 65.457031 176.183594 62.84375 175.042969 60.921875 172.96875 C 59 170.898438 58.0625 168.203125 58.28125 165.386719 Z M 57.78125 174.625 C 57.972656 174.859375 58.171875 175.09375 58.378906 175.320312 C 60.925781 178.070312 64.535156 179.644531 68.28125 179.644531 L 121.511719 179.644531 C 125.257812 179.644531 128.867188 178.070312 131.414062 175.320312 C 131.625 175.09375 131.820312 174.863281 132.011719 174.625 C 138.421875 178.742188 142.523438 185.648438 143.066406 193.230469 L 46.726562 193.230469 C 47.273438 185.648438 51.371094 178.742188 57.78125 174.625 Z M 129.265625 196.691406 L 129.265625 215.808594 L 60.53125 215.808594 L 60.53125 196.691406 Z M 46.664062 196.691406 L 57.066406 196.691406 L 57.066406 217.539062 C 57.066406 218.492188 57.84375 219.269531 58.796875 219.269531 L 130.996094 219.269531 C 131.953125 219.269531 132.730469 218.492188 132.730469 217.539062 L 132.730469 196.691406 L 143.132812 196.691406 L 143.132812 278.453125 C 141.953125 278.804688 140.554688 278.984375 138.945312 278.984375 C 130.628906 278.984375 118.089844 273.964844 108.269531 265.253906 L 108.269531 244.765625 C 108.269531 243.808594 107.496094 243.035156 106.539062 243.035156 L 83.257812 243.035156 C 82.300781 243.035156 81.523438 243.808594 81.523438 244.765625 L 81.523438 292.890625 C 81.523438 293.84375 82.300781 294.621094 83.257812 294.621094 L 105.804688 294.621094 C 110.019531 298.949219 114.46875 302.914062 118.9375 306.28125 C 121.441406 308.167969 123.917969 309.839844 126.355469 311.300781 L 46.664062 311.300781 Z M 62.972656 331.058594 C 62.972656 332.71875 61.625 334.066406 59.964844 334.066406 L 52.917969 334.066406 C 51.257812 334.066406 49.910156 332.71875 49.910156 331.058594 L 49.910156 328.886719 L 62.972656 328.886719 Z M 139.886719 331.058594 C 139.886719 332.71875 138.535156 334.066406 136.878906 334.066406 L 129.832031 334.066406 C 128.171875 334.066406 126.824219 332.71875 126.824219 331.058594 L 126.824219 328.886719 L 139.886719 328.886719 Z M 148.832031 325.425781 L 40.964844 325.425781 L 40.964844 318.726562 C 40.964844 316.542969 42.742188 314.761719 44.933594 314.761719 L 132.921875 314.761719 C 138.03125 317.03125 143.324219 318.3125 148.832031 318.449219 Z M 165.945312 301.554688 C 163.671875 307.789062 159.714844 312.074219 154.503906 313.941406 C 152.539062 314.644531 150.375 315 148.070312 315 C 140.351562 315.003906 130.996094 311.03125 121.023438 303.515625 C 111.078125 296.023438 101.222656 285.476562 93.984375 274.582031 C 93.503906 273.855469 93.347656 272.992188 93.539062 272.148438 C 93.707031 271.410156 94.128906 270.773438 94.734375 270.332031 C 97.960938 273.808594 101.628906 276.996094 105.546875 279.804688 C 119.378906 296.878906 136.800781 308.792969 147.953125 308.796875 C 149.566406 308.796875 151.0625 308.554688 152.398438 308.074219 C 155.855469 306.835938 158.445312 303.921875 160.085938 299.417969 C 161.996094 294.1875 162.492188 286.957031 161.492188 279.019531 C 163.21875 276.113281 164.664062 272.738281 165.816406 268.875 C 168.902344 280.804688 169.019531 293.132812 165.945312 301.554688 Z M 173.550781 208.039062 C 173.550781 209.117188 172.671875 209.992188 171.59375 209.992188 L 146.59375 209.992188 L 146.59375 202.125 L 171.59375 202.125 C 172.671875 202.125 173.550781 203 173.550781 204.078125 Z M 173.550781 208.039062 " fill-opacity="1" fill-rule="nonzero"/></g></svg>