<svg xmlns="http://www.w3.org/2000/svg" xmlns:xlink="http://www.w3.org/1999/xlink" width="500" zoomAndPan="magnify" viewBox="0 0 375 374.999991" height="500" preserveAspectRatio="xMidYMid meet" version="1.0"><defs><clipPath id="934fe7a1b7"><path d="M 139 126.5625 L 237 126.5625 L 237 220 L 139 220 Z M 139 126.5625 " clip-rule="nonzero"/></clipPath><clipPath id="926f5d0eff"><path d="M 320 197 L 375 197 L 375 248.8125 L 320 248.8125 Z M 320 197 " clip-rule="nonzero"/></clipPath><clipPath id="d7dc4a8b7e"><path d="M 0 197 L 55 197 L 55 248.8125 L 0 248.8125 Z M 0 197 " clip-rule="nonzero"/></clipPath></defs><g clip-path="url(#934fe7a1b7)"><path fill="#ffd745" d="M 212.765625 219.84375 C 211.472656 219.84375 210.167969 219.5 209.015625 218.835938 L 188.398438 207.054688 C 188.117188 206.902344 187.8125 206.816406 187.496094 206.816406 C 187.179688 206.816406 186.863281 206.902344 186.59375 207.054688 L 165.976562 218.835938 C 164.816406 219.5 163.519531 219.84375 162.222656 219.84375 C 159.96875 219.84375 157.761719 218.785156 156.324219 217.007812 C 154.894531 215.246094 154.335938 212.933594 154.796875 210.683594 L 159.59375 187.375 C 159.730469 186.738281 159.507812 186.085938 159.039062 185.640625 L 141.5 169.609375 C 139.265625 167.570312 138.460938 164.507812 139.398438 161.632812 C 140.332031 158.753906 142.777344 156.753906 145.78125 156.414062 L 169.363281 153.789062 C 170.003906 153.71875 170.5625 153.308594 170.828125 152.71875 L 180.605469 131.039062 C 181.855469 128.277344 184.5 126.5625 187.515625 126.5625 C 190.535156 126.5625 193.183594 128.277344 194.421875 131.039062 L 204.199219 152.71875 C 204.46875 153.308594 205.023438 153.71875 205.667969 153.789062 L 229.25 156.414062 C 232.253906 156.753906 234.6875 158.746094 235.628906 161.632812 C 236.558594 164.507812 235.753906 167.570312 233.527344 169.609375 L 215.988281 185.640625 C 215.511719 186.074219 215.300781 186.738281 215.433594 187.375 L 220.230469 210.683594 C 220.691406 212.933594 220.132812 215.246094 218.707031 217.007812 C 217.238281 218.777344 215.019531 219.84375 212.765625 219.84375 Z M 212.765625 219.84375 " fill-opacity="1" fill-rule="nonzero"/></g><path fill="#ffe245" d="M 191.785156 132.242188 L 201.558594 153.921875 C 202.242188 155.441406 203.679688 156.484375 205.332031 156.664062 L 228.914062 159.292969 C 232.941406 159.746094 234.554688 164.738281 231.5625 167.472656 L 214.023438 183.507812 C 212.796875 184.632812 212.25 186.316406 212.585938 187.953125 L 217.382812 211.261719 C 218.195312 215.234375 213.957031 218.335938 210.445312 216.324219 L 189.828125 204.542969 C 188.378906 203.714844 186.613281 203.714844 185.164062 204.542969 L 164.546875 216.324219 C 161.023438 218.335938 156.785156 215.246094 157.609375 211.261719 L 162.40625 187.953125 C 162.742188 186.316406 162.195312 184.632812 160.96875 183.507812 L 143.429688 167.484375 C 140.4375 164.75 142.058594 159.746094 146.078125 159.300781 L 169.660156 156.675781 C 171.308594 156.492188 172.75 155.441406 173.429688 153.933594 L 183.207031 132.25 C 184.875 128.535156 190.113281 128.535156 191.785156 132.242188 Z M 191.785156 132.242188 " fill-opacity="1" fill-rule="nonzero"/><path fill="#ffcc14" d="M 228.914062 159.300781 L 205.332031 156.675781 C 203.824219 156.511719 202.511719 155.625 201.769531 154.328125 C 195.171875 178.203125 179.292969 198.894531 157.636719 213.347656 C 158.328125 216.21875 161.675781 217.96875 164.554688 216.332031 L 185.171875 204.554688 C 186.621094 203.726562 188.386719 203.726562 189.835938 204.554688 L 210.453125 216.332031 C 213.976562 218.34375 218.214844 215.253906 217.390625 211.269531 L 212.59375 187.960938 C 212.257812 186.324219 212.804688 184.640625 214.03125 183.515625 L 231.570312 167.484375 C 234.554688 164.75 232.941406 159.746094 228.914062 159.300781 Z M 228.914062 159.300781 " fill-opacity="1" fill-rule="nonzero"/><path fill="#ffd745" d="M 295.535156 237.417969 C 294.566406 237.417969 293.605469 237.15625 292.742188 236.667969 L 277.402344 227.898438 C 277.199219 227.785156 276.960938 227.71875 276.730469 227.71875 C 276.5 227.71875 276.261719 227.773438 276.058594 227.898438 L 260.707031 236.667969 C 259.84375 237.15625 258.886719 237.417969 257.917969 237.417969 C 256.238281 237.417969 254.597656 236.628906 253.523438 235.308594 C 252.457031 233.992188 252.042969 232.277344 252.390625 230.605469 L 255.960938 213.253906 C 256.054688 212.78125 255.890625 212.289062 255.546875 211.964844 L 242.5 200.03125 C 240.839844 198.507812 240.234375 196.238281 240.933594 194.09375 C 241.625 191.945312 243.449219 190.464844 245.683594 190.214844 L 263.230469 188.261719 C 263.710938 188.203125 264.125 187.902344 264.324219 187.460938 L 271.605469 171.324219 C 272.539062 169.273438 274.503906 167.992188 276.75 167.992188 C 278.996094 167.992188 280.972656 169.273438 281.890625 171.324219 L 289.175781 187.460938 C 289.375 187.894531 289.789062 188.203125 290.269531 188.261719 L 307.816406 190.214844 C 310.050781 190.464844 311.863281 191.945312 312.566406 194.09375 C 313.253906 196.238281 312.660156 198.507812 311 200.03125 L 297.953125 211.964844 C 297.597656 212.289062 297.445312 212.78125 297.539062 213.253906 L 301.109375 230.605469 C 301.453125 232.277344 301.042969 234 299.976562 235.308594 C 298.855469 236.628906 297.214844 237.417969 295.535156 237.417969 Z M 295.535156 237.417969 " fill-opacity="1" fill-rule="nonzero"/><path fill="#ffe245" d="M 279.917969 172.207031 L 287.199219 188.347656 C 287.707031 189.472656 288.769531 190.253906 290 190.386719 L 307.546875 192.339844 C 310.539062 192.675781 311.75 196.390625 309.523438 198.433594 L 296.476562 210.367188 C 295.5625 211.203125 295.152344 212.464844 295.402344 213.675781 L 298.96875 231.027344 C 299.574219 233.992188 296.425781 236.292969 293.808594 234.789062 L 278.46875 226.023438 C 277.394531 225.40625 276.078125 225.40625 275.003906 226.023438 L 259.664062 234.789062 C 257.042969 236.28125 253.886719 233.992188 254.5 231.027344 L 258.070312 213.675781 C 258.320312 212.464844 257.917969 211.203125 256.996094 210.367188 L 243.949219 198.433594 C 241.722656 196.390625 242.921875 192.675781 245.921875 192.339844 L 263.472656 190.386719 C 264.699219 190.253906 265.765625 189.472656 266.273438 188.347656 L 273.554688 172.207031 C 274.773438 169.457031 278.667969 169.457031 279.917969 172.207031 Z M 279.917969 172.207031 " fill-opacity="1" fill-rule="nonzero"/><path fill="#ffcc14" d="M 307.546875 192.351562 L 290 190.398438 C 288.878906 190.269531 287.898438 189.617188 287.351562 188.644531 C 282.4375 206.410156 270.621094 221.816406 254.5 232.578125 C 255.019531 234.714844 257.511719 236.023438 259.644531 234.800781 L 274.984375 226.03125 C 276.058594 225.417969 277.375 225.417969 278.449219 226.03125 L 293.789062 234.800781 C 296.410156 236.292969 299.566406 234 298.949219 231.039062 L 295.382812 213.6875 C 295.132812 212.472656 295.535156 211.210938 296.457031 210.375 L 309.503906 198.441406 C 311.75 196.402344 310.550781 192.6875 307.546875 192.351562 Z M 307.546875 192.351562 " fill-opacity="1" fill-rule="nonzero"/><path fill="#ffd745" d="M 117.082031 237.128906 C 116.113281 237.128906 115.15625 236.871094 114.292969 236.378906 L 98.949219 227.613281 C 98.75 227.496094 98.507812 227.429688 98.277344 227.429688 C 98.039062 227.429688 97.808594 227.484375 97.605469 227.613281 L 82.257812 236.378906 C 81.394531 236.871094 80.433594 237.128906 79.464844 237.128906 C 77.785156 237.128906 76.144531 236.339844 75.070312 235.023438 C 74.003906 233.703125 73.59375 231.988281 73.9375 230.316406 L 77.507812 212.964844 C 77.601562 212.492188 77.441406 212 77.09375 211.675781 L 64.046875 199.742188 C 62.386719 198.21875 61.78125 195.949219 62.484375 193.804688 C 63.171875 191.65625 64.996094 190.175781 67.230469 189.925781 L 84.78125 187.972656 C 85.257812 187.914062 85.671875 187.617188 85.875 187.171875 L 93.15625 171.035156 C 94.085938 168.984375 96.054688 167.703125 98.296875 167.703125 C 100.542969 167.703125 102.519531 168.984375 103.441406 171.035156 L 110.722656 187.171875 C 110.925781 187.605469 111.335938 187.914062 111.816406 187.972656 L 129.363281 189.925781 C 131.597656 190.175781 133.414062 191.65625 134.113281 193.804688 C 134.804688 195.949219 134.210938 198.21875 132.550781 199.742188 L 119.5 211.675781 C 119.144531 212 118.992188 212.492188 119.089844 212.964844 L 122.65625 230.316406 C 123.003906 231.988281 122.589844 233.710938 121.527344 235.023438 C 120.402344 236.339844 118.761719 237.128906 117.082031 237.128906 Z M 117.082031 237.128906 " fill-opacity="1" fill-rule="nonzero"/><path fill="#ffe245" d="M 101.464844 171.917969 L 108.746094 188.058594 C 109.253906 189.183594 110.320312 189.964844 111.546875 190.097656 L 129.09375 192.050781 C 132.089844 192.386719 133.296875 196.101562 131.070312 198.144531 L 118.023438 210.078125 C 117.113281 210.914062 116.699219 212.175781 116.949219 213.386719 L 120.519531 230.738281 C 121.121094 233.703125 117.976562 236.003906 115.355469 234.503906 L 100.015625 225.734375 C 98.941406 225.117188 97.625 225.117188 96.550781 225.734375 L 81.191406 234.503906 C 78.574219 235.992188 75.414062 233.703125 76.03125 230.738281 L 79.597656 213.386719 C 79.847656 212.175781 79.445312 210.914062 78.523438 210.078125 L 65.476562 198.144531 C 63.25 196.101562 64.449219 192.386719 67.453125 192.050781 L 85 190.097656 C 86.230469 189.964844 87.292969 189.183594 87.800781 188.058594 L 95.082031 171.917969 C 96.320312 169.167969 100.21875 169.167969 101.464844 171.917969 Z M 101.464844 171.917969 " fill-opacity="1" fill-rule="nonzero"/><path fill="#ffcc14" d="M 129.09375 192.0625 L 111.546875 190.109375 C 110.425781 189.984375 109.445312 189.328125 108.898438 188.355469 C 103.988281 206.121094 92.167969 221.527344 76.050781 232.289062 C 76.566406 234.425781 79.0625 235.734375 81.191406 234.511719 L 96.53125 225.746094 C 97.605469 225.128906 98.921875 225.128906 99.996094 225.746094 L 115.335938 234.511719 C 117.957031 236.003906 121.113281 233.710938 120.5 230.75 L 116.929688 213.398438 C 116.679688 212.183594 117.082031 210.925781 118.003906 210.085938 L 131.050781 198.152344 C 133.296875 196.113281 132.097656 192.398438 129.09375 192.0625 Z M 129.09375 192.0625 " fill-opacity="1" fill-rule="nonzero"/><g clip-path="url(#926f5d0eff)"><path fill="#ffd745" d="M 361.535156 248.332031 C 360.824219 248.332031 360.105469 248.140625 359.472656 247.773438 L 348.121094 241.285156 C 347.96875 241.199219 347.792969 241.152344 347.621094 241.152344 C 347.449219 241.152344 347.277344 241.199219 347.125 241.285156 L 335.773438 247.773438 C 335.140625 248.140625 334.421875 248.332031 333.710938 248.332031 C 332.472656 248.332031 331.253906 247.746094 330.457031 246.773438 C 329.671875 245.800781 329.363281 244.53125 329.613281 243.289062 L 332.253906 230.460938 C 332.320312 230.113281 332.203125 229.746094 331.945312 229.507812 L 322.292969 220.683594 C 321.066406 219.554688 320.625 217.882812 321.132812 216.292969 C 321.652344 214.707031 322.992188 213.609375 324.644531 213.425781 L 337.625 211.984375 C 337.980469 211.945312 338.285156 211.722656 338.429688 211.394531 L 343.8125 199.460938 C 344.496094 197.941406 345.953125 197 347.621094 197 C 349.28125 197 350.742188 197.941406 351.429688 199.460938 L 356.8125 211.394531 C 356.957031 211.722656 357.265625 211.945312 357.621094 211.984375 L 370.601562 213.425781 C 372.25 213.609375 373.59375 214.707031 374.113281 216.292969 C 374.628906 217.882812 374.179688 219.566406 372.949219 220.683594 L 363.300781 229.507812 C 363.039062 229.746094 362.914062 230.113281 362.992188 230.460938 L 365.628906 243.289062 C 365.890625 244.53125 365.582031 245.800781 364.785156 246.773438 C 363.988281 247.746094 362.769531 248.332031 361.535156 248.332031 Z M 361.535156 248.332031 " fill-opacity="1" fill-rule="nonzero"/></g><path fill="#ffe245" d="M 349.980469 200.105469 L 355.363281 212.039062 C 355.738281 212.878906 356.535156 213.453125 357.4375 213.550781 L 370.417969 214.996094 C 372.632812 215.246094 373.527344 217.996094 371.875 219.5 L 362.222656 228.324219 C 361.554688 228.941406 361.246094 229.871094 361.429688 230.769531 L 364.066406 243.597656 C 364.519531 245.789062 362.1875 247.484375 360.25 246.378906 L 348.898438 239.890625 C 348.101562 239.4375 347.132812 239.4375 346.335938 239.890625 L 334.988281 246.378906 C 333.046875 247.484375 330.71875 245.78125 331.167969 243.597656 L 333.804688 230.769531 C 333.988281 229.871094 333.691406 228.941406 333.011719 228.324219 L 323.359375 219.5 C 321.707031 217.988281 322.601562 215.246094 324.816406 214.996094 L 337.796875 213.550781 C 338.710938 213.445312 339.496094 212.878906 339.871094 212.039062 L 345.253906 200.105469 C 346.183594 198.066406 349.0625 198.066406 349.980469 200.105469 Z M 349.980469 200.105469 " fill-opacity="1" fill-rule="nonzero"/><path fill="#ffcc14" d="M 370.417969 215.003906 L 357.4375 213.5625 C 356.613281 213.464844 355.882812 212.984375 355.480469 212.269531 C 351.84375 225.40625 343.101562 236.800781 331.1875 244.761719 C 331.570312 246.339844 333.414062 247.300781 334.996094 246.40625 L 346.347656 239.921875 C 347.140625 239.46875 348.113281 239.46875 348.90625 239.921875 L 360.257812 246.40625 C 362.195312 247.511719 364.527344 245.808594 364.078125 243.625 L 361.4375 230.796875 C 361.253906 229.902344 361.554688 228.96875 362.234375 228.351562 L 371.886719 219.527344 C 373.527344 217.996094 372.632812 215.246094 370.417969 215.003906 Z M 370.417969 215.003906 " fill-opacity="1" fill-rule="nonzero"/><g clip-path="url(#d7dc4a8b7e)"><path fill="#ffd745" d="M 41.28125 248.8125 C 40.570312 248.8125 39.851562 248.621094 39.21875 248.253906 L 27.867188 241.769531 C 27.714844 241.679688 27.539062 241.632812 27.367188 241.632812 C 27.195312 241.632812 27.023438 241.679688 26.871094 241.769531 L 15.519531 248.253906 C 14.886719 248.621094 14.167969 248.8125 13.457031 248.8125 C 12.21875 248.8125 11 248.226562 10.203125 247.253906 C 9.417969 246.28125 9.109375 245.011719 9.359375 243.769531 L 12 230.941406 C 12.066406 230.59375 11.949219 230.230469 11.691406 229.988281 L 2.039062 221.164062 C 0.8125 220.039062 0.371094 218.363281 0.878906 216.773438 C 1.398438 215.1875 2.738281 214.089844 4.390625 213.90625 L 17.371094 212.464844 C 17.726562 212.425781 18.03125 212.203125 18.175781 211.875 L 23.558594 199.941406 C 24.242188 198.421875 25.699219 197.480469 27.367188 197.480469 C 29.027344 197.480469 30.484375 198.421875 31.175781 199.941406 L 36.558594 211.875 C 36.703125 212.203125 37.011719 212.425781 37.367188 212.464844 L 50.347656 213.90625 C 51.996094 214.089844 53.339844 215.1875 53.859375 216.773438 C 54.375 218.363281 53.925781 220.046875 52.695312 221.164062 L 43.046875 229.988281 C 42.785156 230.230469 42.660156 230.59375 42.738281 230.941406 L 45.375 243.769531 C 45.636719 245.011719 45.328125 246.28125 44.53125 247.253906 C 43.734375 248.226562 42.515625 248.8125 41.28125 248.8125 Z M 41.28125 248.8125 " fill-opacity="1" fill-rule="nonzero"/></g><path fill="#ffe245" d="M 29.726562 200.589844 L 35.109375 212.519531 C 35.484375 213.359375 36.28125 213.9375 37.183594 214.03125 L 50.164062 215.476562 C 52.378906 215.726562 53.273438 218.480469 51.621094 219.980469 L 41.96875 228.804688 C 41.300781 229.421875 40.992188 230.355469 41.175781 231.25 L 43.8125 244.078125 C 44.261719 246.273438 41.933594 247.964844 39.992188 246.859375 L 28.644531 240.371094 C 27.847656 239.921875 26.878906 239.921875 26.082031 240.371094 L 14.734375 246.859375 C 12.792969 247.964844 10.464844 246.261719 10.914062 244.078125 L 13.550781 231.25 C 13.734375 230.355469 13.4375 229.421875 12.757812 228.804688 L 3.105469 219.980469 C 1.453125 218.46875 2.347656 215.726562 4.5625 215.476562 L 17.542969 214.03125 C 18.457031 213.925781 19.242188 213.359375 19.617188 212.519531 L 25 200.589844 C 25.929688 198.546875 28.808594 198.546875 29.726562 200.589844 Z M 29.726562 200.589844 " fill-opacity="1" fill-rule="nonzero"/><path fill="#ffcc14" d="M 50.164062 215.484375 L 37.183594 214.042969 C 36.359375 213.945312 35.628906 213.464844 35.226562 212.753906 C 31.589844 225.890625 22.847656 237.285156 10.933594 245.242188 C 11.316406 246.820312 13.160156 247.78125 14.742188 246.886719 L 26.09375 240.402344 C 26.886719 239.949219 27.859375 239.949219 28.652344 240.402344 L 40.003906 246.886719 C 41.941406 247.996094 44.273438 246.292969 43.820312 244.105469 L 41.183594 231.257812 C 41 230.363281 41.300781 229.429688 41.980469 228.8125 L 51.632812 219.988281 C 53.273438 218.480469 52.378906 215.726562 50.164062 215.484375 Z M 50.164062 215.484375 " fill-opacity="1" fill-rule="nonzero"/></svg>