<svg xmlns="http://www.w3.org/2000/svg" xmlns:xlink="http://www.w3.org/1999/xlink" width="500" zoomAndPan="magnify" viewBox="0 0 375 374.999991" height="500" preserveAspectRatio="xMidYMid meet" version="1.0"><defs><clipPath id="a5f6659cd4"><path d="M 264.253906 261.109375 L 282.246094 261.109375 L 282.246094 285 L 264.253906 285 Z M 264.253906 261.109375 " clip-rule="nonzero"/></clipPath><clipPath id="f8a43d3e6b"><path d="M 92.496094 33.125 L 282.246094 33.125 L 282.246094 143 L 92.496094 143 Z M 92.496094 33.125 " clip-rule="nonzero"/></clipPath><clipPath id="3d2db988f3"><path d="M 92.496094 107 L 154 107 L 154 333 L 92.496094 333 Z M 92.496094 107 " clip-rule="nonzero"/></clipPath><clipPath id="caefde13ec"><path d="M 153.15625 68 L 282.246094 68 L 282.246094 332.78125 L 153.15625 332.78125 Z M 153.15625 68 " clip-rule="nonzero"/></clipPath><clipPath id="fb4bdc8f84"><path d="M 140 33.023438 L 205 33.023438 L 205 71 L 140 71 Z M 140 33.023438 " clip-rule="nonzero"/></clipPath></defs><path fill="#556d7e" d="M 183.066406 318.234375 L 178.585938 325.707031 C 177.6875 328.269531 176.195312 330.761719 174.371094 332.730469 L 170.25 339.609375 L 164.851562 336.476562 L 164.664062 336.382812 C 163.003906 335.503906 161.960938 333.488281 161.960938 330.617188 C 161.960938 324.996094 165.917969 318.140625 170.773438 315.339844 C 173.332031 313.871094 175.625 313.777344 177.238281 314.867188 L 183.066406 318.234375 " fill-opacity="1" fill-rule="nonzero"/><path fill="#32383e" d="M 185.421875 323.800781 C 185.421875 329.429688 181.476562 336.269531 176.613281 339.082031 C 171.746094 341.894531 167.804688 339.617188 167.804688 333.988281 C 167.804688 328.363281 171.746094 321.523438 176.613281 318.710938 C 181.476562 315.894531 185.421875 318.175781 185.421875 323.800781 " fill-opacity="1" fill-rule="nonzero"/><path fill="#8986bc" d="M 182.738281 325.351562 C 182.738281 329.265625 179.996094 334.023438 176.613281 335.980469 C 173.230469 337.9375 170.488281 336.351562 170.488281 332.4375 C 170.488281 328.527344 173.230469 323.765625 176.613281 321.808594 C 179.996094 319.851562 182.738281 321.441406 182.738281 325.351562 " fill-opacity="1" fill-rule="nonzero"/><path fill="#556d7e" d="M 279.894531 262.464844 L 275.421875 269.9375 C 274.519531 272.5 273.027344 274.992188 271.203125 276.960938 L 267.082031 283.839844 L 261.683594 280.707031 L 261.492188 280.613281 C 259.835938 279.734375 258.792969 277.71875 258.792969 274.847656 C 258.792969 269.226562 262.746094 262.371094 267.605469 259.570312 C 270.164062 258.101562 272.460938 258.003906 274.070312 259.097656 L 279.894531 262.464844 " fill-opacity="1" fill-rule="nonzero"/><g clip-path="url(#a5f6659cd4)"><path fill="#32383e" d="M 282.253906 268.03125 C 282.253906 273.660156 278.308594 280.5 273.445312 283.3125 C 268.582031 286.125 264.636719 283.847656 264.636719 278.21875 C 264.636719 272.59375 268.582031 265.75 273.445312 262.9375 C 278.308594 260.125 282.253906 262.402344 282.253906 268.03125 " fill-opacity="1" fill-rule="nonzero"/></g><path fill="#8986bc" d="M 279.570312 269.582031 C 279.570312 273.496094 276.828125 278.253906 273.445312 280.210938 C 270.0625 282.167969 267.320312 280.582031 267.320312 276.667969 C 267.320312 272.753906 270.0625 267.996094 273.445312 266.039062 C 276.828125 264.082031 279.570312 265.671875 279.570312 269.582031 " fill-opacity="1" fill-rule="nonzero"/><g clip-path="url(#f8a43d3e6b)"><path fill="#deddf2" d="M 92.496094 107.738281 L 153.214844 142.839844 L 282.253906 68.230469 L 221.539062 33.125 L 92.496094 107.738281 " fill-opacity="1" fill-rule="nonzero"/></g><path fill="#90c3eb" d="M 129.359375 109.148438 L 150.773438 121.53125 L 133.5625 131.480469 L 112.148438 119.097656 L 129.359375 109.148438 " fill-opacity="1" fill-rule="nonzero"/><g clip-path="url(#3d2db988f3)"><path fill="#b4b2e0" d="M 153.214844 332.398438 L 92.496094 297.292969 L 92.496094 107.71875 L 153.214844 142.824219 L 153.214844 332.398438 " fill-opacity="1" fill-rule="nonzero"/></g><path fill="#8986bc" d="M 146.203125 321.558594 L 99.507812 294.558594 L 99.507812 118.558594 L 146.203125 145.5625 L 146.203125 321.558594 " fill-opacity="1" fill-rule="nonzero"/><path fill="#b4b2e0" d="M 141.761719 313.128906 L 103.953125 291.265625 L 103.953125 126.992188 L 141.761719 148.851562 L 141.761719 313.128906 " fill-opacity="1" fill-rule="nonzero"/><path fill="#5c94d5" d="M 133.5625 131.460938 L 112.148438 119.082031 L 112.148438 188.335938 L 133.5625 200.71875 L 133.5625 131.460938 " fill-opacity="1" fill-rule="nonzero"/><path fill="#3366b2" d="M 129.417969 170.140625 C 129.417969 174.332031 126.480469 176.03125 122.855469 173.933594 C 119.234375 171.839844 116.292969 166.742188 116.292969 162.550781 C 116.292969 158.363281 119.234375 156.664062 122.855469 158.761719 C 126.480469 160.851562 129.417969 165.949219 129.417969 170.140625 " fill-opacity="1" fill-rule="nonzero"/><path fill="#e1b011" d="M 127.136719 168.820312 C 127.136719 171.554688 125.21875 172.660156 122.855469 171.292969 C 120.492188 169.925781 118.578125 166.605469 118.578125 163.875 C 118.578125 161.140625 120.492188 160.035156 122.855469 161.398438 C 125.21875 162.765625 127.136719 166.089844 127.136719 168.820312 " fill-opacity="1" fill-rule="nonzero"/><path fill="#8986bc" d="M 137.46875 242.234375 L 108.246094 225.339844 L 108.246094 205.113281 L 137.46875 222.007812 L 137.46875 242.234375 " fill-opacity="1" fill-rule="nonzero"/><g clip-path="url(#caefde13ec)"><path fill="#8986bc" d="M 282.253906 257.789062 L 153.214844 332.398438 L 153.214844 142.824219 L 282.253906 68.214844 L 282.253906 257.789062 " fill-opacity="1" fill-rule="nonzero"/></g><path fill="#b4b2e0" d="M 258.550781 220.492188 L 176.917969 267.691406 C 176.148438 268.136719 175.527344 267.664062 175.527344 266.640625 C 175.527344 265.613281 176.148438 264.425781 176.917969 263.980469 L 258.550781 216.78125 C 259.320312 216.335938 259.945312 216.804688 259.945312 217.832031 C 259.945312 218.855469 259.320312 220.046875 258.550781 220.492188 " fill-opacity="1" fill-rule="nonzero"/><path fill="#b4b2e0" d="M 258.550781 230.355469 L 176.917969 277.558594 C 176.148438 278 175.527344 277.53125 175.527344 276.507812 C 175.527344 275.480469 176.148438 274.289062 176.917969 273.84375 L 258.550781 226.644531 C 259.320312 226.199219 259.945312 226.667969 259.945312 227.695312 C 259.945312 228.71875 259.320312 229.910156 258.550781 230.355469 " fill-opacity="1" fill-rule="nonzero"/><path fill="#b4b2e0" d="M 258.550781 240.21875 L 176.917969 287.421875 C 176.148438 287.863281 175.527344 287.394531 175.527344 286.367188 C 175.527344 285.34375 176.148438 284.152344 176.917969 283.707031 L 258.550781 236.507812 C 259.320312 236.0625 259.945312 236.535156 259.945312 237.5625 C 259.945312 238.585938 259.320312 239.773438 258.550781 240.21875 " fill-opacity="1" fill-rule="nonzero"/><path fill="#b4b2e0" d="M 258.550781 250.085938 L 176.917969 297.289062 C 176.148438 297.730469 175.527344 297.257812 175.527344 296.234375 C 175.527344 295.207031 176.148438 294.019531 176.917969 293.574219 L 258.550781 246.371094 C 259.320312 245.929688 259.945312 246.398438 259.945312 247.425781 C 259.945312 248.449219 259.320312 249.640625 258.550781 250.085938 " fill-opacity="1" fill-rule="nonzero"/><path fill="#8986bc" d="M 194.621094 114.246094 L 204.308594 108.644531 L 204.308594 65.230469 L 194.621094 70.835938 L 194.621094 114.246094 " fill-opacity="1" fill-rule="nonzero"/><g clip-path="url(#fb4bdc8f84)"><path fill="#deddf2" d="M 150.023438 33.828125 L 140.332031 39.433594 L 194.621094 70.820312 L 204.308594 65.21875 L 150.023438 33.828125 " fill-opacity="1" fill-rule="nonzero"/></g><path fill="#b4b2e0" d="M 194.621094 114.238281 L 140.332031 82.847656 L 140.332031 39.433594 L 194.621094 70.828125 L 194.621094 114.238281 " fill-opacity="1" fill-rule="nonzero"/><path fill="#444ca8" d="M 189.292969 74.289062 L 189.292969 104.628906 L 168.445312 92.589844 L 156.117188 85.402344 L 151.765625 82.886719 L 145.632812 79.386719 L 145.632812 49.042969 L 163.355469 59.300781 L 170.957031 63.664062 L 175.3125 66.179688 L 187.636719 73.363281 L 189.292969 74.289062 " fill-opacity="1" fill-rule="nonzero"/><path fill="#90c3eb" d="M 189.320312 77.484375 L 145.632812 52.226562 L 145.632812 49.039062 L 189.320312 74.296875 L 189.320312 77.484375 " fill-opacity="1" fill-rule="nonzero"/><path fill="#deddf2" d="M 177.53125 80.851562 L 157.421875 69.222656 L 157.421875 66.464844 L 177.53125 78.09375 L 177.53125 80.851562 " fill-opacity="1" fill-rule="nonzero"/><path fill="#deddf2" d="M 177.53125 86.570312 L 157.421875 74.941406 L 157.421875 72.179688 L 177.53125 83.808594 L 177.53125 86.570312 " fill-opacity="1" fill-rule="nonzero"/><path fill="#deddf2" d="M 172.671875 89.476562 L 162.28125 83.46875 L 162.28125 80.707031 L 172.671875 86.71875 L 172.671875 89.476562 " fill-opacity="1" fill-rule="nonzero"/><path fill="#5b60b6" d="M 151.765625 82.886719 L 145.632812 79.386719 L 145.632812 77.050781 L 161.351562 61.3125 L 168.929688 65.695312 L 164.230469 70.398438 L 157.421875 66.464844 L 157.421875 69.222656 L 162.484375 72.152344 L 160.613281 74.027344 L 157.421875 72.179688 L 157.421875 74.941406 L 158.863281 75.773438 L 151.765625 82.886719 M 170.949219 63.675781 L 167.078125 61.4375 L 170.957031 63.664062 L 170.949219 63.675781 " fill-opacity="1" fill-rule="nonzero"/><path fill="#b1d7f3" d="M 168.929688 65.695312 L 161.351562 61.3125 L 163.355469 59.300781 L 167.078125 61.4375 L 170.949219 63.675781 L 168.929688 65.695312 " fill-opacity="1" fill-rule="nonzero"/><path fill="#e8e8f6" d="M 162.484375 72.152344 L 157.421875 69.222656 L 157.421875 66.464844 L 164.230469 70.398438 L 162.484375 72.152344 " fill-opacity="1" fill-rule="nonzero"/><path fill="#e8e8f6" d="M 158.863281 75.773438 L 157.421875 74.941406 L 157.421875 72.179688 L 160.613281 74.027344 L 158.863281 75.773438 " fill-opacity="1" fill-rule="nonzero"/><path fill="#5b60b6" d="M 168.445312 92.589844 L 156.117188 85.402344 L 163.21875 78.292969 L 175.582031 85.441406 L 172.671875 88.355469 L 172.671875 86.71875 L 162.28125 80.707031 L 162.28125 83.46875 L 171.960938 89.066406 L 168.445312 92.589844 M 177.328125 83.691406 L 164.964844 76.542969 L 166.835938 74.667969 L 177.53125 80.851562 L 177.53125 78.09375 L 168.585938 72.917969 L 173.285156 68.210938 L 185.648438 75.363281 L 177.328125 83.691406 M 179.246094 68.472656 L 175.300781 66.191406 L 175.3125 66.179688 L 179.246094 68.472656 " fill-opacity="1" fill-rule="nonzero"/><path fill="#b1d7f3" d="M 185.648438 75.363281 L 173.285156 68.210938 L 175.300781 66.191406 L 179.246094 68.472656 L 187.636719 73.363281 L 185.648438 75.363281 " fill-opacity="1" fill-rule="nonzero"/><path fill="#e8e8f6" d="M 177.53125 80.851562 L 166.835938 74.667969 L 168.585938 72.917969 L 177.53125 78.09375 L 177.53125 80.851562 " fill-opacity="1" fill-rule="nonzero"/><path fill="#e8e8f6" d="M 175.582031 85.441406 L 163.21875 78.292969 L 164.964844 76.542969 L 177.328125 83.691406 L 175.582031 85.441406 " fill-opacity="1" fill-rule="nonzero"/><path fill="#e8e8f6" d="M 171.960938 89.066406 L 162.28125 83.46875 L 162.28125 80.707031 L 172.671875 86.71875 L 172.671875 88.355469 L 171.960938 89.066406 " fill-opacity="1" fill-rule="nonzero"/><path fill="#b4b2e0" d="M 247.375 176.769531 L 235.199219 169.671875 L 235.148438 151.605469 L 247.324219 158.707031 L 247.375 176.769531 " fill-opacity="1" fill-rule="nonzero"/><path fill="#deddf2" d="M 247.324219 158.707031 L 235.148438 151.605469 L 261.847656 136.171875 L 274.023438 143.269531 L 247.324219 158.707031 " fill-opacity="1" fill-rule="nonzero"/><path fill="#8986bc" d="M 249.132812 155.898438 L 239.992188 150.570312 L 260.039062 138.976562 L 269.179688 144.308594 L 249.132812 155.898438 " fill-opacity="1" fill-rule="nonzero"/><path fill="#656195" d="M 274.023438 143.269531 L 274.074219 161.332031 L 247.375 176.769531 L 247.324219 158.707031 L 274.023438 143.269531 " fill-opacity="1" fill-rule="nonzero"/><path fill="#deddf2" d="M 251.984375 153.199219 L 245.503906 149.429688 L 245.488281 143.589844 L 251.96875 147.359375 L 251.984375 153.199219 " fill-opacity="1" fill-rule="nonzero"/><path fill="#deddf2" d="M 251.96875 147.359375 L 245.488281 143.589844 L 239.175781 135.875 L 245.65625 139.644531 L 251.96875 147.359375 " fill-opacity="1" fill-rule="nonzero"/><path fill="#deddf2" d="M 237.808594 134.390625 L 244.285156 138.164062 C 244.84375 138.484375 245.3125 138.984375 245.65625 139.644531 L 239.175781 135.875 C 238.832031 135.214844 238.367188 134.71875 237.808594 134.390625 " fill-opacity="1" fill-rule="nonzero"/><path fill="#deddf2" d="M 250.773438 120.488281 L 244.296875 116.71875 L 257.792969 108.914062 L 264.269531 112.683594 L 250.773438 120.488281 " fill-opacity="1" fill-rule="nonzero"/><path fill="#deddf2" d="M 243.214844 128.105469 L 236.734375 124.335938 C 238.113281 123.539062 239.460938 122.183594 240.515625 120.523438 C 241.566406 118.867188 242.917969 117.515625 244.296875 116.71875 L 250.773438 120.488281 C 249.394531 121.285156 248.046875 122.640625 246.992188 124.292969 C 245.941406 125.953125 244.59375 127.308594 243.214844 128.105469 " fill-opacity="1" fill-rule="nonzero"/><path fill="#deddf2" d="M 218.1875 142.574219 L 211.710938 138.804688 L 236.734375 124.335938 L 243.214844 128.105469 L 218.1875 142.574219 " fill-opacity="1" fill-rule="nonzero"/><path fill="#b4b2e0" d="M 218.210938 150.914062 L 211.734375 147.144531 L 211.710938 138.804688 L 218.1875 142.574219 L 218.210938 150.914062 " fill-opacity="1" fill-rule="nonzero"/><path fill="#b4b2e0" d="M 264.269531 112.683594 L 264.363281 146.042969 L 251.984375 153.199219 L 251.96875 147.359375 L 245.65625 139.644531 C 244.535156 137.488281 242.121094 137.085938 239.421875 138.648438 L 218.210938 150.914062 L 218.1875 142.574219 L 243.214844 128.105469 C 244.59375 127.308594 245.941406 125.953125 246.992188 124.292969 C 248.046875 122.640625 249.394531 121.285156 250.773438 120.488281 L 264.269531 112.683594 " fill-opacity="1" fill-rule="nonzero"/><path fill="#b4b2e0" d="M 127.136719 226.148438 C 127.136719 228.878906 125.21875 229.984375 122.855469 228.621094 C 120.492188 227.257812 118.578125 223.933594 118.578125 221.199219 C 118.578125 218.46875 120.492188 217.359375 122.855469 218.726562 C 125.21875 220.09375 127.136719 223.417969 127.136719 226.148438 " fill-opacity="1" fill-rule="nonzero"/><path fill="#deddf2" d="M 133.109375 278.574219 C 128.5 278.574219 124.070312 277.945312 120.066406 276.664062 C 115.285156 275.128906 111.953125 272.050781 110.15625 267.519531 C 103.957031 251.859375 119.132812 224.101562 119.78125 222.925781 C 120.597656 221.441406 122.457031 220.917969 123.945312 221.730469 C 125.425781 222.550781 125.964844 224.421875 125.144531 225.902344 C 121.382812 232.703125 111.609375 254.527344 115.855469 265.257812 C 116.957031 268.03125 118.945312 269.851562 121.933594 270.8125 C 133.089844 274.402344 148.804688 271.820312 161.039062 264.394531 C 169.894531 259.019531 181.136719 248.683594 184.351562 229.996094 C 191.71875 187.246094 198.886719 151.203125 212.15625 143.085938 C 213.589844 142.195312 215.480469 142.65625 216.375 144.109375 C 217.253906 145.554688 216.796875 147.449219 215.355469 148.328125 C 203.378906 155.652344 195.570312 201.019531 190.402344 231.039062 C 186.785156 252.007812 174.167969 263.605469 164.210938 269.648438 C 154.628906 275.457031 143.402344 278.574219 133.109375 278.574219 " fill-opacity="1" fill-rule="nonzero"/></svg>